<svg width="244" height="130" viewBox="0 0 244 130" fill="none" xmlns="http://www.w3.org/2000/svg">
<g clip-path="url(#clip0_3366_88)">
<path d="M52.5958 103.766C38.5679 103.766 25.3292 98.3851 15.4271 88.5784C5.45332 78.7718 0 65.7435 0 51.9009C0 38.0583 5.45332 24.9946 15.3913 15.2233C25.3292 5.38126 38.532 0 52.5958 0C66.6596 0 79.8624 5.38126 89.7644 15.1879C99.7024 24.9946 105.156 38.0229 105.156 51.8655C105.156 65.7081 99.7024 78.7718 89.7644 88.543C79.8265 98.3851 66.6237 103.766 52.5958 103.766ZM52.5958 1.09749C24.1812 1.09749 1.11219 23.8617 1.11219 51.9009C1.11219 79.9047 24.217 102.704 52.5958 102.704C80.9746 102.704 104.079 79.9047 104.079 51.9009C104.079 23.8617 80.9746 1.09749 52.5958 1.09749Z" fill="#009949"/>
<path d="M52.5958 86.3484C71.8752 86.3484 87.5042 70.9259 87.5042 51.9013C87.5042 32.8766 71.8752 17.4541 52.5958 17.4541C33.3164 17.4541 17.6874 32.8766 17.6874 51.9013C17.6874 70.9259 33.3164 86.3484 52.5958 86.3484Z" fill="#EC1D25"/>
<path d="M40.2541 90.4906L38.9266 89.2869C34.6931 87.7645 30.6749 85.5695 27.1948 82.7373L27.9841 84.1534C28.0559 84.2242 28.1276 84.3304 28.1994 84.4012C28.3429 84.7553 28.5582 85.0739 28.8452 85.3217C28.9169 85.3925 29.0604 85.4987 29.2398 85.6404C29.4192 85.782 29.6703 85.959 29.9932 86.1714C30.2444 86.313 30.4238 86.49 30.6031 86.6316C30.7825 86.7733 30.8902 86.9503 30.9978 87.0919C31.1772 87.4105 31.2489 87.6937 31.1413 88.0124C30.4955 88.0124 29.9932 87.977 29.5986 87.9416C29.2398 87.9061 28.9887 87.8353 28.9169 87.7999C28.7375 87.6937 28.6299 87.4813 28.5223 87.1627C28.4864 86.9857 28.4864 86.7733 28.5582 86.5962L27.1948 86.2776C27.3742 86.8087 27.5177 87.2689 27.6971 87.6229C27.8765 87.977 28.0559 88.2248 28.2353 88.3664C28.3788 88.5434 28.7017 88.7912 29.1322 89.0745C29.3116 89.1807 29.4551 89.2869 29.5627 89.3223C29.778 89.4285 30.1367 89.4993 30.639 89.5347C30.8902 89.5701 31.1772 89.5701 31.5359 89.5701C31.8588 89.5701 32.2535 89.5347 32.6481 89.5347C33.0428 89.4993 33.4016 89.5701 33.7603 89.7471C34.0115 89.8533 34.2626 90.0303 34.5137 90.2782C34.7649 90.526 34.9084 90.703 34.9084 90.8092L33.9397 92.9334C34.3702 93.429 34.8366 93.9247 35.303 94.3849L37.348 89.4285C37.8503 89.6055 38.3526 89.8179 38.8549 89.9949L40.2541 90.4906ZM35.1595 90.0303C34.8725 89.6763 34.5855 89.3223 34.3344 89.0745C34.0832 88.8266 33.8321 88.6496 33.5809 88.508C33.4374 88.4372 33.0069 88.2956 32.2535 88.154C32.4688 87.7999 32.2894 87.3397 31.7871 86.7379L32.2535 87.0211C32.397 87.1273 32.5764 87.1981 32.7558 87.2689L33.7245 87.7999C34.0473 87.977 34.3702 88.1186 34.729 88.2956C35.0519 88.4372 35.3748 88.6142 35.7336 88.7558L35.1595 90.0303Z" fill="#009949"/>
<path d="M50.1562 92.2605C49.618 91.9773 49.0798 91.7295 48.5417 91.4109C46.6043 91.2338 44.7028 90.8798 42.8372 90.4196C40.9716 89.9593 39.106 89.3575 37.3122 88.6494L38.6037 89.8885C40.8281 90.6674 43.0884 91.2692 45.4204 91.6941L45.3845 91.8357C43.0525 91.7295 40.6129 91.6587 37.958 91.5171C38.4244 92.0481 38.8908 92.5437 39.3572 93.0748C39.8953 93.2518 40.3976 93.4288 40.8999 93.6412C41.151 93.7475 41.4022 93.8537 41.6174 93.9599C41.8686 94.0661 42.0838 94.1723 42.335 94.2785C42.5143 94.3847 42.6937 94.4555 42.8731 94.5617C43.0525 94.6679 43.196 94.7387 43.3754 94.8449C43.6983 95.022 43.9494 95.2344 44.2006 95.4468C44.2364 95.4822 44.3441 95.5884 44.5593 95.8008C44.7746 96.0133 45.0616 96.2965 45.4204 96.6505L46.3532 97.1461L47.0707 91.9419C47.573 92.0127 48.1112 92.0481 48.6134 92.1189C48.757 92.1189 48.8646 92.1543 49.0081 92.1543L49.4027 92.1897L50.1562 92.2605ZM42.4785 95.6946C42.8014 95.6238 42.9449 95.4468 42.8731 95.2698C42.8014 95.1282 42.6578 94.9512 42.3708 94.7741C42.0838 94.5971 41.7968 94.4909 41.438 94.3847C41.0434 94.2785 40.6846 94.2431 40.3617 94.2785C40.0388 94.3139 39.8594 94.4201 39.8236 94.5617C39.7877 94.7387 39.8953 94.9158 40.1465 95.1282C40.29 95.2344 40.4335 95.3406 40.6129 95.4114C40.7922 95.4822 41.0075 95.553 41.2228 95.6238C41.725 95.7654 42.1556 95.7654 42.4785 95.6946ZM44.8464 95.0574C44.4158 94.6679 43.9135 94.3139 43.3036 93.9245C42.9807 93.7475 42.6578 93.535 42.2991 93.358C42.1197 93.2518 41.9403 93.181 41.725 93.0748C41.6174 93.0394 41.5457 92.9686 41.438 92.9332C41.3304 92.8978 41.2228 92.827 41.151 92.7916C41.5098 92.7916 41.8327 92.7916 42.1914 92.7916C42.5502 92.7916 42.8731 92.7916 43.2319 92.7916C43.9135 92.7916 44.5952 92.7916 45.2769 92.827L44.8464 95.0574Z" fill="#009949"/>
<path d="M59.3407 93.783C59.0895 93.8184 58.8384 93.8892 58.5155 93.96C58.0132 94.2078 57.7621 94.4556 57.7621 94.668C57.798 94.8804 58.0132 95.0221 58.4079 95.0929C58.8025 95.1637 59.2689 95.1991 59.7353 95.1283C60.417 95.0221 60.9552 94.7742 61.3498 94.491C61.7086 94.2078 61.8521 93.9246 61.7803 93.6413C61.7444 93.4997 61.6727 93.3581 61.5651 93.2165C61.2422 92.8625 60.6323 92.5793 59.7712 92.4022C59.3048 92.296 58.8384 92.2252 58.372 92.2252C58.1209 92.2252 57.9056 92.2252 57.6545 92.2252C57.4033 92.2252 57.1881 92.2252 56.9369 92.2606V92.0836C59.1254 91.8712 61.3139 91.4464 63.4665 90.8799C62.8925 90.7737 62.3185 90.7029 61.7445 90.5967C59.3048 91.1631 56.7934 91.4818 54.282 91.588C51.7706 91.6942 49.2592 91.5526 46.7478 91.1985C47.2501 91.5172 47.7883 91.8004 48.2905 92.0836C50.6226 92.3314 52.9904 92.3668 55.3225 92.2252V92.4376C52.8828 92.9333 50.5867 93.3935 48.4341 93.9246C48.7211 94.137 49.044 94.314 49.3669 94.491L50.2997 95.0221C50.5867 95.0575 50.8378 95.0929 51.1248 95.0929C51.376 95.1283 51.663 95.1637 51.9141 95.1991C52.1653 95.2345 52.4164 95.3053 52.6676 95.3407C52.9187 95.3761 53.1698 95.4115 53.3851 95.4823C53.7797 95.5885 54.282 95.7655 54.8919 96.0134C55.3583 96.1904 55.6812 96.332 55.8965 96.4736C56.0041 96.5444 56.1835 96.7214 56.5064 97.04L57.511 97.3233L57.0804 93.1811C57.2957 93.1457 57.511 93.1457 57.7262 93.1457C57.9415 93.1457 58.1209 93.1457 58.3361 93.1457C58.7308 93.1457 59.0895 93.2165 59.4483 93.2873C59.9865 93.3935 60.3094 93.5705 60.417 93.783C60.0582 93.7121 59.7353 93.7476 59.3407 93.783ZM55.5377 95.4823C55.2866 95.3407 55.0354 95.2345 54.7484 95.1283C54.6049 95.0575 54.4614 95.0221 54.3179 94.9867C54.1744 94.9158 54.0309 94.8804 53.8515 94.845C53.2057 94.6326 52.524 94.491 51.7347 94.314C52.1294 94.2078 52.4164 94.137 52.6317 94.0662C52.8469 93.9954 52.9187 93.96 52.9546 93.96C53.2775 93.8892 53.6362 93.783 54.0668 93.7122C54.4614 93.6413 54.9278 93.4997 55.3942 93.3935L55.5377 95.4823Z" fill="#009949"/>
<path d="M61.7444 90.5973C61.4933 90.6327 61.1345 90.7035 60.7758 90.8097C60.3811 90.8805 59.9506 90.9867 59.4483 91.0929L60.3094 91.2699C60.5964 91.3407 60.8834 91.4115 61.1704 91.4469C61.3498 91.4115 61.4574 91.3761 61.5292 91.3761C61.8521 91.3053 62.175 91.2699 62.462 91.2699C62.749 91.2699 63.036 91.3053 63.2871 91.3761C63.5024 91.4469 63.6459 91.5532 63.6818 91.7656L64.7222 95.4475C65.368 95.5537 66.0138 95.5891 66.6596 95.6599L64.9734 90.4557C65.5115 90.314 66.0138 90.1016 66.5161 89.9246C67.0184 89.7476 67.5206 89.5352 68.0588 89.3582C67.4489 89.3228 66.8749 89.3228 66.3008 89.2874L65.4757 89.5706C65.1886 89.6768 64.9375 89.7476 64.6505 89.8184C64.5428 89.783 64.4352 89.783 64.3635 89.7476C64.1123 89.5352 63.9688 89.3936 63.8971 89.3228C63.5742 89.3228 63.2872 89.2874 62.9643 89.252C63.1078 89.783 63.2872 90.2786 63.5024 90.7035C63.2513 90.5973 63.0001 90.5619 62.7131 90.5265C62.5696 90.5265 62.3902 90.5265 62.2467 90.5265C62.1032 90.5265 61.9238 90.5619 61.7444 90.5973Z" fill="#009949"/>
<path d="M76.8128 84.5078C76.2029 84.6494 75.6289 84.7556 75.0549 84.8618C71.8618 86.986 68.31 88.65 64.6146 89.7829C64.9016 89.8183 65.2245 89.8537 65.5116 89.8891L66.4085 89.9599C68.6329 89.181 70.7855 88.1897 72.8305 87.0568L72.9022 87.1984C71.0366 88.5792 69.0993 90.0661 66.9825 91.6238C67.3413 91.6946 67.6642 91.7654 68.0229 91.8008L69.0634 91.9425C69.6015 91.7654 70.1038 91.553 70.6061 91.4114C70.8572 91.3406 71.1084 91.2698 71.3595 91.199C71.6107 91.1282 71.8618 91.0574 72.1129 91.022C72.9381 90.845 73.6556 90.7387 74.3014 90.7742C74.3373 90.7742 74.5167 90.7742 74.8037 90.8096C75.0907 90.845 75.4854 90.8804 76.0235 90.9158C76.3464 90.845 76.7052 90.7742 77.064 90.7034L74.2297 86.2426L75.5213 85.4283L76.8128 84.5078ZM73.1175 91.9779C73.2969 91.6946 73.3327 91.5176 73.1534 91.4114C73.0099 91.3406 72.7946 91.3052 72.4717 91.3406C72.1488 91.376 71.8259 91.4822 71.503 91.6592C71.1443 91.8362 70.8214 92.0133 70.6061 92.2611C70.3908 92.4735 70.3191 92.6859 70.3908 92.8275C70.4626 92.9691 70.6778 93.0399 71.0007 93.0399C71.3595 93.0399 71.7542 92.9337 72.1847 92.7213C72.6152 92.5089 72.9381 92.2611 73.1175 91.9779ZM74.5526 89.9953C73.9785 89.9599 73.3327 89.9953 72.6152 90.1015C72.2564 90.1369 71.8618 90.2077 71.4671 90.3139C71.2519 90.3493 71.0725 90.4201 70.8572 90.4555C70.642 90.4909 70.4267 90.5617 70.2114 90.5971C71.2878 89.7121 72.3282 88.827 73.4045 88.0481L74.5526 89.9953Z" fill="#009949"/>
<path d="M7.71356 45.7059C7.67768 46.0245 7.6418 46.3077 7.6418 46.5555C7.6418 46.8388 7.71356 47.0866 7.74944 47.299C7.85707 47.653 8.07233 48.0071 8.32347 48.3257C8.61049 48.6089 8.8975 48.7859 9.14864 48.7859C9.54329 48.8213 9.90206 48.5735 10.1532 48.0425C10.225 47.9363 10.2608 47.7946 10.2967 47.653C10.3326 47.476 10.2608 47.122 10.1173 46.6618C10.0097 46.2015 9.93794 45.9183 9.97381 45.8121C10.0097 45.5997 10.0456 45.4935 10.1532 45.5289C10.2608 45.5289 10.4761 45.8475 10.799 46.4139C10.9784 46.7326 11.086 46.9804 11.2295 47.1928C11.3371 47.4052 11.4448 47.5468 11.4807 47.653L12.0547 47.0866C12.2341 46.9096 12.4493 46.7326 12.6646 46.5201C12.2699 45.8475 11.8753 45.281 11.5524 44.927C11.2295 44.573 10.9425 44.396 10.6555 44.396C10.2608 44.396 9.93794 44.5376 9.72267 44.8562C9.47154 45.1748 9.32803 45.5997 9.2204 46.2015C9.18452 46.4493 9.14864 46.6618 9.18452 46.8388C8.82575 46.4139 8.68224 45.8121 8.82575 44.9978C8.86162 44.8208 8.8975 44.6438 8.96926 44.4668C9.04101 44.2897 9.14864 44.1127 9.29215 43.9711C9.50741 43.6525 9.86618 43.4047 10.2967 43.1923C10.7272 42.9798 11.086 42.909 11.373 42.9444L14.7813 43.7587C15.2119 43.4047 15.6424 43.086 16.0729 42.7674L9.39978 41.1035L9.57917 40.4308C9.65092 40.2184 9.72267 40.006 9.75855 39.7582L10.1532 38.4482C9.75855 38.7669 9.32803 39.1209 8.8975 39.4749C8.82575 39.6873 8.75399 39.8998 8.68224 40.1122C8.64636 40.3246 8.57461 40.537 8.53873 40.7494C8.46698 40.8911 8.4311 40.9973 8.39522 40.9973C8.10821 41.1035 7.89294 41.1035 7.74944 40.9265L6.85251 41.7761C7.78531 41.9885 8.46698 42.0948 8.93338 42.1656C9.25627 42.201 9.54329 42.2364 9.79443 42.2718C9.25627 42.4134 8.78987 42.7674 8.4311 43.3339C8.25171 43.6171 8.10821 43.9357 7.9647 44.3251C7.85707 44.7854 7.78531 45.2102 7.71356 45.7059Z" fill="#009949"/>
<path d="M12.3417 38.4833C12.0906 38.5541 11.8394 38.5541 11.6242 38.4833C11.4089 38.4124 11.1936 38.2 11.0501 37.846C10.9066 37.492 10.9066 37.1025 11.0501 36.6423C11.2295 36.1467 11.5883 35.7572 12.0547 35.4386C12.3417 35.2616 12.5928 35.1554 12.8799 35.12C13.131 35.0846 13.3821 35.12 13.6333 35.2262L16.934 36.6423C17.4004 36.3945 17.8668 36.1467 18.3332 35.9342L12.2699 33.102C12.4493 32.6772 12.6646 32.2877 12.8799 31.8629L13.2028 31.261C13.3104 31.0486 13.418 30.8362 13.5256 30.6592C13.2745 30.7654 13.0592 30.907 12.8081 31.0486L12.0906 31.438C11.9112 31.7921 11.7318 32.1107 11.5524 32.4647C11.3371 32.6417 11.1936 32.748 11.086 32.8188C10.9784 32.8542 10.8707 32.8896 10.6914 32.8542C10.5837 32.8542 10.3685 32.925 10.0814 33.0666C9.90206 33.1728 9.75855 33.279 9.57917 33.3852C10.4761 33.8455 11.086 34.0933 11.4448 34.1995C11.7677 34.2703 12.0547 34.3411 12.3058 34.4119C11.6242 34.5535 11.1219 34.8013 10.7272 35.1554C10.6555 35.2262 10.512 35.3678 10.225 35.6864C10.0814 35.8634 9.97382 36.0758 9.86619 36.3237C9.79443 36.5361 9.72268 36.7839 9.65092 37.0671C9.57917 37.4566 9.54329 37.8106 9.57917 38.1292C9.61505 38.4478 9.72268 38.7665 9.86619 39.0497C10.1173 39.5453 10.512 39.864 11.0143 40.0056C11.5165 40.1472 11.9829 40.0764 12.4493 39.7932C12.7005 39.6516 12.9157 39.4391 13.131 39.1913C13.3463 38.9435 13.5256 38.6603 13.6692 38.3062C13.7768 38.0938 13.8127 37.8814 13.8485 37.7044C13.8844 37.492 13.9203 37.2795 13.8844 37.0671C13.8485 36.6069 13.705 36.2883 13.418 36.1821C13.3104 36.1467 13.2028 36.1467 13.0592 36.1467C12.6287 36.2175 12.3058 36.5007 12.0906 37.0317C11.8753 37.7044 11.9471 38.0938 12.3417 38.2354C12.4135 38.2708 12.4852 38.2708 12.5928 38.3062C12.5928 38.377 12.4852 38.4478 12.3417 38.4833Z" fill="#009949"/>
<path d="M19.3018 22.3042C18.9431 22.4458 18.6202 22.6228 18.2973 22.8353C17.9744 23.0477 17.6874 23.3309 17.4362 23.6495C16.9698 24.2514 16.6111 24.8886 16.4676 25.5259C16.324 26.1631 16.324 26.8358 16.4676 27.4731C16.5034 27.6501 16.5752 27.7917 16.6828 27.8625C16.8263 27.9687 17.0057 27.9687 17.2569 27.8625C17.508 27.7563 17.6874 27.6147 17.795 27.4023C18.0461 26.765 18.2255 26.411 18.2614 26.3756C18.4049 26.1631 18.6202 26.1631 18.9072 26.3402C19.0148 26.411 19.0507 26.5172 19.0507 26.588C19.0507 26.9774 19.0148 27.3668 19.0507 27.7917C19.266 27.6147 19.5171 27.4377 19.7324 27.2606L20.414 26.765C20.414 26.1631 20.4858 25.5613 20.5217 24.9594L20.5934 24.039C20.6293 23.7203 20.6652 23.4371 20.7011 23.1185C21.0598 23.0123 21.5262 23.0477 22.0644 23.2247L24.3964 25.5967C24.7193 25.5613 24.9704 25.4905 25.2216 25.4551C25.4727 25.4197 25.688 25.3843 25.8673 25.3135L21.2751 20.6757C21.598 20.357 21.9209 20.0384 22.2438 19.7552L23.2483 18.8701C22.746 18.9409 22.2079 19.0117 21.6697 19.0825C21.5621 19.1533 21.3827 19.3304 21.0957 19.6136C20.9163 19.7906 20.7728 19.9322 20.7011 20.003L20.414 20.1092C20.2705 20.1446 20.127 20.0738 19.9476 19.9322C19.8759 19.9322 19.84 19.9322 19.8041 19.9322C19.4812 20.0384 19.1942 20.18 18.8713 20.2862L20.6293 21.7378L21.2033 22.0918C20.5934 22.021 19.9476 22.0918 19.3018 22.3042ZM17.7233 25.7737C17.6874 25.5259 17.7233 25.2427 17.8309 24.924C17.9385 24.6408 18.1179 24.3222 18.4049 24.0036C18.6561 23.7203 18.979 23.5079 19.4095 23.3309C19.3377 24.039 19.2301 24.7116 19.1942 25.3843C18.6561 25.1719 18.1538 25.2781 17.7233 25.7737Z" fill="#009949"/>
<path d="M26.2979 25.668C25.9032 25.2785 25.6162 25.0661 25.3651 24.9599C25.2216 24.8891 25.0422 24.8537 24.8269 24.8537C24.6116 24.8183 24.3605 24.8183 24.0735 24.8537C23.8224 24.8183 23.4277 24.9599 22.8537 25.1723C22.7102 25.2785 22.5667 25.3493 22.4231 25.4556C22.2796 25.5618 22.1361 25.668 22.0285 25.7742C21.7774 25.9866 21.4903 26.2344 21.2751 26.5176C21.2033 26.5885 21.1674 26.6593 21.0957 26.6947C21.0239 26.7655 20.9881 26.8363 20.9522 26.8717C20.8446 26.9779 20.7369 27.1195 20.6652 27.2257C20.4858 27.4381 20.3064 27.6151 20.1988 27.7568C19.9117 28.04 19.7682 28.2524 19.6965 28.2878C19.0866 28.7126 18.6202 28.7834 18.2255 28.5356C18.1538 28.5002 18.082 28.394 18.0461 28.2524C17.5439 28.4294 17.2568 28.571 17.221 28.6064C17.1851 28.6418 17.1851 28.7126 17.221 28.7834C17.2927 28.8897 17.3645 28.9251 17.4362 28.9959C17.6874 29.2083 17.8668 29.3499 17.9744 29.4207C18.369 29.6685 18.7996 29.7747 19.266 29.7393C19.6965 29.7039 20.127 29.5269 20.5217 29.2083C20.9163 28.9251 21.2751 28.571 21.5621 28.1462C22.1003 27.4027 22.5308 26.9071 22.7819 26.5885C23.0331 26.2698 23.2842 26.022 23.5712 25.8804C23.8224 25.7034 24.0735 25.5972 24.2888 25.5618C24.3964 25.5618 24.6834 25.5972 25.1857 25.668C25.6162 25.7388 26.0109 25.7388 26.2979 25.668Z" fill="#009949"/>
<path d="M28.0559 17.3129C27.9482 17.3129 27.8765 17.3483 27.7688 17.4191C27.6971 17.4899 27.5895 17.6315 27.4459 17.8439C26.9795 18.5166 26.6925 18.906 26.549 19.0122C26.2979 19.2246 26.1185 19.2246 25.975 19.083C25.8674 18.9768 25.8315 18.6582 25.8674 18.1979C25.9032 17.7023 25.975 17.4191 26.1185 17.2775C26.5131 17.3129 26.7284 17.3129 26.8002 17.3483C26.9437 17.3483 27.1231 17.3483 27.3742 17.2775C27.4818 17.2421 27.6253 17.2067 27.733 17.1712C27.8765 17.1358 28.02 17.065 28.1635 17.0296C28.4864 16.9234 28.8093 16.7818 29.1322 16.6048C29.2757 16.534 29.4551 16.4278 29.5986 16.357C29.778 16.2862 29.9215 16.18 30.1008 16.1092C30.1367 16.8172 30.3161 17.3837 30.6031 17.8439C30.7825 18.1271 31.1054 18.4458 31.5359 18.7998C31.8947 19.083 32.2176 19.4016 32.5764 19.6849C32.6481 19.7203 32.7916 19.6849 33.0428 19.6141C33.258 19.5433 33.4374 19.4724 33.545 19.437C33.6168 19.4016 33.6527 19.3308 33.6886 19.2246C32.9351 18.7998 32.4329 18.4104 32.1817 17.9855C32.0741 17.8085 31.9665 17.5607 31.8588 17.3129C31.7153 17.0296 31.6436 16.6048 31.7153 16.1092C31.7871 15.6135 31.8947 15.1887 32.11 14.7638C31.7153 14.7284 31.3924 14.693 31.0337 14.6576C30.7108 14.5514 30.3879 14.516 30.1367 14.516C29.4551 15.1533 29.0245 15.5427 28.8093 15.7197C28.5581 15.8967 28.1994 16.0738 27.733 16.2862C27.2307 16.4986 26.9437 16.5694 26.836 16.4632C26.836 16.4278 26.836 16.3924 26.836 16.357C26.9437 16.1446 27.0513 16.0029 27.1589 15.8967C28.9169 14.693 30.7466 13.6309 32.6481 12.6751C32.11 12.6043 31.5718 12.5689 31.0337 12.498L30.3161 12.8875L29.9573 13.0645L29.5986 13.2769L28.1994 14.1266C27.3024 14.7284 26.3696 15.3303 25.5086 15.9675C23.7506 17.2775 22.0644 18.6582 20.5217 20.2159C21.0598 20.1097 21.598 20.0035 22.1003 19.8973C22.5308 19.5079 22.9613 19.1538 23.3918 18.7644L23.7147 18.4812L24.0376 18.1979L24.7193 17.6669C24.6834 17.7731 24.6834 17.8439 24.6475 17.9147C24.504 18.6582 24.5399 19.1892 24.8269 19.4724C24.8987 19.5787 25.0063 19.6495 25.1498 19.7557C25.5803 20.0389 26.1544 20.0743 26.8719 19.9327C27.0154 19.8619 27.1948 19.7911 27.3383 19.7203C27.4818 19.6495 27.6253 19.5433 27.7688 19.4724C28.0917 19.26 28.4146 18.8706 28.8093 18.375C28.8452 18.3396 28.881 18.3041 28.9169 18.2687C28.9887 18.2333 29.0963 18.1979 29.168 18.2687C29.2757 18.3041 29.3474 18.375 29.3833 18.4458C29.5268 18.6228 29.4192 18.906 29.1322 19.2954C28.9169 19.5787 28.6658 19.8619 28.3429 20.1097C28.1635 20.2513 27.9482 20.3575 27.6971 20.4637C27.4459 20.5699 27.1948 20.6407 26.8719 20.6762C26.3696 20.747 25.9032 20.7116 25.4727 20.5699C25.3292 20.4991 25.0063 20.3575 24.5758 20.1451C24.2529 20.0035 23.9659 19.7203 23.6789 19.3308C23.5712 19.3308 23.2483 19.4724 22.746 19.6849C23.1407 20.1097 23.4636 20.4637 23.7865 20.747C24.1094 21.0302 24.504 21.3134 25.0063 21.4904C25.5086 21.7028 26.0109 21.809 26.4773 21.8445C27.0154 21.8799 27.5177 21.8445 27.9841 21.7028C28.2352 21.632 28.4505 21.5258 28.6658 21.4196C28.881 21.3134 29.0963 21.1718 29.3116 21.0302C29.778 20.7116 30.065 20.2867 30.3161 19.8619C30.5314 19.4016 30.6031 18.9768 30.4955 18.552C30.4596 18.375 30.3879 18.2333 30.3161 18.0917C30.065 17.7023 29.5627 17.4545 28.8093 17.3483C28.4505 17.2775 28.1994 17.2775 28.0559 17.3129Z" fill="#009949"/>
<path d="M30.9619 12.4974C30.5314 12.6745 29.9573 12.9931 29.2398 13.4887C29.778 13.4887 30.3161 13.5241 30.8543 13.5595C30.9619 13.4887 31.0695 13.4533 31.1413 13.4179C31.6436 13.1701 32.11 13.0993 32.6123 13.2409C32.8275 13.3117 32.971 13.4533 33.0787 13.6657L35.2672 17.9141C35.7336 18.0203 36.2358 18.1619 36.7022 18.2681L33.7603 12.0726C34.155 11.8602 34.5855 11.7186 34.9801 11.5416C35.3748 11.3645 35.8053 11.1875 36.2 11.0459C35.6618 10.9397 35.1595 10.8335 34.6214 10.7627C34.1908 10.9397 33.7244 11.1167 33.2939 11.3645C33.1863 11.3291 33.0787 11.2937 33.0069 11.2937C32.7199 11.0813 32.5405 10.9043 32.4687 10.7981L31.6077 10.7627C31.9306 11.4 32.2535 11.9664 32.6123 12.462C32.3611 12.3558 32.11 12.3204 31.8588 12.3204C31.5001 12.3204 31.2489 12.3912 30.9619 12.4974Z" fill="#009949"/>
<path d="M46.8196 8.35527L46.0662 8.00124L45.2769 7.68262C43.1601 8.00124 41.1151 8.49689 39.0701 9.13414C38.5679 9.31116 38.0656 9.45277 37.5633 9.62978L36.0565 10.1962C35.5542 10.3732 35.0878 10.5857 34.5855 10.7981L33.868 11.1167C33.6168 11.2229 33.4016 11.3291 33.1504 11.4707C33.4374 11.5061 33.6886 11.5415 33.9397 11.577L34.729 11.7186C36.6305 10.8689 38.6396 10.1962 40.6487 9.62978L41.4021 9.41737C41.6533 9.34656 41.9044 9.27575 42.1556 9.24035L43.6983 8.92172C43.9494 8.85092 44.2006 8.81551 44.4876 8.78011L45.2769 8.6385L46.0662 8.49689C46.2814 8.39068 46.5684 8.39068 46.8196 8.35527ZM45.0616 11.7186C45.0257 11.4353 44.9181 11.1875 44.7387 10.9397C44.3799 10.4441 43.9853 10.1254 43.483 9.91301C43.2319 9.8068 42.9807 9.73599 42.6937 9.70059C42.4067 9.66519 42.1197 9.62978 41.7968 9.66519C41.438 9.70059 41.151 9.7714 40.8999 9.8068C40.577 9.87761 40.29 9.98382 40.0388 10.1254C39.7877 10.267 39.5724 10.4441 39.393 10.6565C38.9984 11.0813 38.8908 11.4707 38.9984 11.8956C39.0343 12.0018 39.0701 12.108 39.1778 12.2142C39.393 12.4974 39.6442 12.6744 39.9671 12.7453C40.1106 12.7807 40.29 12.7807 40.4693 12.7807C40.6487 12.7807 40.864 12.7098 41.0793 12.6744C42.0838 12.3912 42.5143 11.931 42.335 11.2937C42.2632 11.0813 42.1556 10.8689 41.9762 10.7273C42.0838 10.6919 42.1914 10.6565 42.2632 10.6211C42.6578 10.5503 43.0166 10.6211 43.3395 10.8335C43.6265 11.0459 43.8059 11.2583 43.8777 11.5415C43.9494 11.8956 43.8059 12.2496 43.4471 12.5682C42.9449 13.0285 42.4785 13.3471 41.9762 13.4887C41.6892 13.5595 41.4021 13.5949 41.151 13.6303C40.864 13.6657 40.6129 13.6657 40.3617 13.6303C39.8236 13.5949 39.3213 13.4179 38.7831 13.1701C38.3526 12.9577 37.8862 12.7098 37.3839 12.3204C37.1687 12.1788 36.774 11.8602 36.0923 11.3645L35.0878 11.5061C35.4107 11.8248 35.8053 12.1434 36.2 12.4974C36.4152 12.6744 36.5946 12.8515 36.8458 13.0285C37.061 13.2055 37.2763 13.3825 37.5274 13.5949C37.8503 13.8427 38.3167 14.126 38.9625 14.4092C39.1778 14.5154 39.393 14.5862 39.5365 14.657C39.7159 14.7278 39.8594 14.7632 39.9671 14.7986C40.3258 14.9048 40.7205 14.9402 41.1151 14.9048C41.5457 14.8694 41.9403 14.834 42.2991 14.7278C42.5861 14.657 42.8731 14.5508 43.1601 14.3738C43.4471 14.2322 43.7342 14.0552 44.0212 13.8427C44.4517 13.5241 44.7387 13.2055 44.9181 12.8515C45.0616 12.5328 45.1334 12.1434 45.0616 11.7186Z" fill="#009949"/>
<path d="M50.8378 9.5948C51.2325 9.84263 51.5195 9.98424 51.663 10.0196L51.6271 9.98424C51.7347 10.055 51.9141 10.1258 52.1653 10.1613C52.2729 10.1967 52.4164 10.1967 52.5599 10.2321C52.7034 10.2675 52.8828 10.3029 53.0622 10.3029C53.5645 9.94883 53.8515 9.77182 53.8515 9.73642C54.1385 9.48859 54.3179 9.27618 54.3179 9.02835C54.3179 8.88674 54.2461 8.63892 54.0668 8.28489C53.8874 7.89546 53.708 7.68304 53.5286 7.68304V7.93086C54.7484 7.93086 55.9682 8.03707 57.1881 8.14328C56.7575 7.82465 56.327 7.47062 55.8965 7.15199C51.8065 6.83337 47.6448 7.11659 43.6265 7.89546C44.1647 8.07247 44.667 8.32029 45.1692 8.53271L46.0303 8.3911L46.9272 8.28489L47.8241 8.17868C47.9677 8.17868 48.1112 8.14328 48.2547 8.14328L48.6852 8.10788C49.2592 8.07247 49.8691 8.00167 50.4432 8.00167L52.2011 7.96626C52.3805 7.96626 52.524 8.00167 52.5958 8.07247C52.7752 8.28489 52.8469 8.4265 52.8469 8.56812C52.8469 8.95755 52.6317 9.20537 52.1653 9.34698C51.95 9.16997 51.4836 8.95755 50.8019 8.67432C50.6584 8.60352 50.5508 8.56812 50.4073 8.53271C50.2638 8.49731 50.1203 8.46191 50.0126 8.46191C49.7256 8.4265 49.4386 8.4265 49.1875 8.4265C48.1829 8.49731 47.6089 8.88674 47.4654 9.5594C47.3936 9.91343 47.5012 10.1613 47.7883 10.3737C48.0753 10.5861 48.4699 10.6569 48.9363 10.6215C49.2592 10.5861 49.5104 10.4799 49.7615 10.2675C50.0126 10.055 50.1203 9.80722 50.1203 9.5948C50.1203 9.48859 50.0844 9.38239 49.9768 9.31158C50.2638 9.34698 50.5149 9.45319 50.8378 9.5948Z" fill="#009949"/>
<path d="M52.6675 10.2669C52.6317 10.2669 52.6317 10.3377 52.6675 10.4439C52.7393 10.621 52.7752 10.7272 52.7752 10.798V13.1346C52.7034 13.0992 52.6675 13.0638 52.6675 13.0284C52.3446 12.8159 51.8782 12.7451 51.2683 12.7451C51.1607 12.7451 50.9813 12.7451 50.7661 12.7451C49.6539 12.8867 48.9722 12.9222 48.6493 12.7805C48.2905 12.6389 48.1112 12.3911 48.0394 11.9663C48.0035 11.7539 48.0394 11.506 48.147 11.152L47.573 10.9396C47.4295 10.9042 47.3219 10.9396 47.2501 11.0812C47.0348 11.506 46.9631 11.9309 47.0348 12.2849C47.1066 12.7097 47.3219 13.1346 47.7524 13.4886C47.9676 13.701 48.3264 13.8426 48.8287 13.9134C49.2592 14.0196 49.6897 14.0196 50.0844 13.9842C50.1561 13.9842 50.2638 13.9488 50.4432 13.9134C50.5867 13.878 50.7661 13.8426 50.9813 13.8072C51.3401 13.7364 51.663 13.701 51.8782 13.701C52.3447 13.701 52.7034 13.8072 52.9546 14.0196C53.1339 14.2321 53.2416 14.4091 53.3492 14.5507L53.9232 14.9755L54.0667 11.329C54.1026 10.5856 54.0668 10.1607 54.0309 10.0899C53.7797 9.52346 53.2416 9.24023 52.4523 9.24023C51.9141 9.24023 51.5554 9.31104 51.376 9.45265C51.0172 9.62967 50.7302 9.73588 50.5508 9.84209C50.1561 10.1961 49.905 10.4085 49.7974 10.5501C49.5821 10.798 49.5104 11.0812 49.5462 11.3644C49.5462 11.5414 49.618 11.683 49.6897 11.8601C49.7615 12.0371 49.9409 12.1787 50.2279 12.2849C50.3714 12.3557 50.5149 12.3911 50.6226 12.3911C50.7661 12.4265 50.8737 12.4265 51.0172 12.4265C51.3401 12.4265 51.663 12.3203 51.9141 12.1787C52.1653 12.0017 52.3088 11.8247 52.3088 11.5768C52.3088 11.3998 52.237 11.2582 52.0576 11.1166C51.8782 10.975 51.663 10.9396 51.4118 10.9396C51.376 10.9396 51.3042 10.9396 51.2325 10.9396C51.3042 10.798 51.376 10.6918 51.4836 10.5855C51.7706 10.4085 51.95 10.2669 52.0935 10.2315C52.2729 10.1607 52.4164 10.1607 52.4882 10.1607H52.4523C52.524 10.2315 52.5958 10.2669 52.6675 10.2669Z" fill="#009949"/>
<path d="M60.991 8.745C60.5964 8.39097 60.2376 8.00153 59.8429 7.6475C59.5559 7.6121 59.3048 7.5767 59.0178 7.54129L58.1926 7.43508L58.0491 6.90404C57.9415 6.62081 57.7621 6.26678 57.4392 5.87735C57.1163 5.48792 56.7934 5.20469 56.4346 4.99227C56.1117 4.81526 55.7888 4.63824 55.5018 4.49663C55.3583 4.42582 55.2148 4.35502 55.0713 4.31961C54.9278 4.28421 54.8202 4.24881 54.6766 4.21341C54.1385 4.1072 53.6362 4.00099 53.1698 3.93018C52.9545 3.89478 52.7393 3.85938 52.524 3.85938C52.3088 3.85938 52.1294 3.85938 51.95 3.85938C51.4836 3.85938 50.9813 3.93018 50.5149 4.00099C50.2638 4.03639 50.0485 4.1072 49.7974 4.178C49.5821 4.24881 49.331 4.31961 49.1157 4.39042C48.3264 4.67365 47.9676 5.02768 48.0035 5.38171C48.0394 5.77114 48.3264 6.05436 48.8646 6.19598C49.4027 6.37299 49.9409 6.4438 50.4432 6.4792C50.479 6.4792 51.0531 6.4792 52.2011 6.5146C52.6675 6.5146 53.0263 6.58541 53.2774 6.62081C53.5286 6.69162 53.6362 6.76243 53.6362 6.86863C53.6362 6.97484 53.3492 7.15186 52.7752 7.39968L54.4973 7.43508C54.6049 7.25807 54.6408 7.08105 54.6408 6.93944C54.6408 6.12517 53.8874 5.62953 52.3805 5.52332H52.1294C51.7706 5.52332 51.376 5.48792 50.9813 5.48792C50.766 5.48792 50.5867 5.48792 50.3714 5.48792C50.1561 5.48792 49.9409 5.48792 49.7256 5.52332C49.2233 5.55872 48.9722 5.48792 48.9722 5.38171C48.9722 5.24009 49.331 5.06308 50.0485 4.92147C50.5867 4.81526 51.0889 4.77985 51.5553 4.77985C52.6317 4.74445 53.5645 4.88606 54.3179 5.06308C55.0713 5.24009 55.6453 5.59412 56.0759 5.98356C56.5423 6.4438 56.7934 6.76243 56.8293 6.93944L56.901 7.25807L55.5736 7.15186L54.8919 7.11646H54.2102C54.4614 7.25807 54.6766 7.43508 54.9278 7.5767L55.6453 8.07234L56.7216 8.14314L56.1835 13.8784C56.5423 14.1971 56.8651 14.5511 57.2239 14.8697L58.0491 8.24935C58.5514 8.32016 59.0178 8.35556 59.52 8.42637L60.991 8.745Z" fill="#009949"/>
<path d="M73.835 13.2762C73.5839 12.816 73.3327 12.3558 73.0457 11.8955C69.9962 10.3732 66.7672 9.16949 63.4665 8.39062C63.8253 8.78006 64.1841 9.16949 64.5428 9.59433C66.5161 10.1254 68.4176 10.798 70.2832 11.5769L70.2114 11.7893C70.1038 11.7539 69.9603 11.7539 69.8526 11.7185C69.745 11.6831 69.6015 11.6831 69.458 11.6831C69.2069 11.6477 68.9198 11.6123 68.6687 11.6123C68.4176 11.6123 68.0947 11.5769 67.8077 11.5415C67.5206 11.5061 67.1977 11.5415 66.8748 11.5415C66.1932 11.5415 65.2963 11.6123 64.2199 11.8247L64.6863 12.639L64.9016 13.0284L65.1169 13.4533C65.6191 13.6657 66.0497 13.8781 66.4443 14.1259C66.839 14.3737 67.1619 14.6924 67.413 15.011C67.6641 15.3296 67.8794 15.6837 68.0229 16.0731C68.1664 16.4625 68.2382 16.852 68.2741 17.3122C68.3817 17.6662 68.4893 18.0203 68.5969 18.3743L71.5389 12.2142C71.9335 12.3912 72.3282 12.6036 72.7228 12.7806L73.835 13.2762ZM68.5611 15.4358C68.3817 14.9756 68.1305 14.5508 67.7718 14.0905C67.5924 13.8781 67.413 13.6657 67.1977 13.4533C67.0901 13.3471 66.9825 13.2408 66.8748 13.1346C66.7672 13.0284 66.6237 12.9222 66.5161 12.8514C67.0901 12.7806 67.6283 12.7806 68.1664 12.816C68.4176 12.816 68.7046 12.8514 68.9557 12.8514C69.0992 12.8514 69.2069 12.8868 69.3145 12.8868C69.4221 12.9222 69.5656 12.9222 69.6733 12.9576L68.5611 15.4358Z" fill="#009949"/>
<path d="M72.974 11.8602C72.7946 11.754 72.5434 11.6123 72.2205 11.4707C71.8977 11.3291 71.5389 11.1875 71.1442 11.0459C71.4313 11.5061 71.7183 11.931 72.0053 12.3912C72.1488 12.462 72.2205 12.4974 72.2923 12.5328C72.7946 12.7806 73.1175 13.1347 73.261 13.6303C73.3327 13.8073 73.2969 14.0198 73.1892 14.2676L70.8931 18.4805C71.0725 18.9408 71.2519 19.401 71.3954 19.8259L74.8754 13.9135C75.6647 14.3384 76.3823 14.834 77.1357 15.2943C76.9204 14.7986 76.7052 14.3384 76.4899 13.8427C76.0953 13.5595 75.6647 13.3471 75.2342 13.0993C75.1983 12.9931 75.1625 12.8869 75.1266 12.8161C75.1625 12.462 75.1983 12.2142 75.2342 12.0726C75.0907 11.8248 74.9113 11.5769 74.7678 11.3291C74.409 11.9664 74.1579 12.5328 73.9426 13.0993C73.835 12.6036 73.5121 12.2142 72.974 11.8602Z" fill="#009949"/>
<path d="M78.6784 18.6577C79.0372 18.5869 79.2883 18.4453 79.4318 18.2329C79.683 17.9143 79.7547 17.454 79.6112 16.923C79.4677 16.3565 79.1089 15.9317 78.5708 15.5777C78.3196 15.4007 78.0685 15.2945 77.8174 15.1882C77.5662 15.1174 77.2792 15.082 76.9922 15.082C76.4182 15.1174 76.0235 15.2944 75.8083 15.6131C75.5571 15.9671 75.5571 16.4273 75.7724 16.923C75.88 17.1708 76.0235 17.4186 76.167 17.6311C76.3464 17.8435 76.5617 18.0559 76.8128 18.2329C77.1357 18.4807 77.4227 18.6223 77.6739 18.6577C77.9968 18.7285 78.3197 18.7639 78.6784 18.6577ZM76.5975 24.039L77.1716 23.3663C77.0998 22.4105 76.9563 21.667 76.8487 21.0297C76.7411 20.4279 76.6334 19.9677 76.5258 19.6844C76.167 18.6931 75.8441 17.8435 75.4495 17.1708L74.4808 18.6577C74.6243 18.8702 74.7319 19.0826 74.8396 19.295C74.9472 19.5074 75.0548 19.7198 75.1625 19.8968C75.3419 20.2863 75.5212 20.6403 75.6647 20.9589C75.7365 21.1006 75.8083 21.2776 75.8441 21.4192C75.9159 21.5608 75.9518 21.7024 75.9876 21.844C76.0953 22.0918 76.1311 22.3043 76.2029 22.5167L76.3823 23.2601C76.4899 23.508 76.5617 23.7558 76.5975 24.039ZM78.6067 17.1708C78.499 17.3124 78.3914 17.4186 78.3197 17.454C78.1761 17.4894 77.925 17.4894 77.5662 17.4186C77.2075 17.3478 76.9563 17.277 76.7769 17.1708C76.5617 17.0292 76.5617 16.8522 76.6693 16.6752C76.8487 16.4273 77.0998 16.3211 77.4227 16.3211C77.8891 16.3565 78.2479 16.4628 78.4632 16.6044C78.7502 16.7814 78.7861 16.9584 78.6067 17.1708Z" fill="#009949"/>
<path d="M88.437 25.8447C88.437 25.5615 88.4011 25.3137 88.3652 25.0304L88.2935 24.2162L87.8629 23.6497L87.6477 23.3665L87.3965 23.0833L86.4637 22.0212L86.2126 21.738L85.9615 21.4901L85.4592 20.9591L84.9569 20.4281L84.7058 20.1802L84.4546 19.9324L83.4142 18.9411L83.163 18.6933L82.876 18.4455L82.3379 17.9852L81.7997 17.525L81.5127 17.2772L81.2257 17.0648L80.0776 16.1797C80.257 16.7107 80.4364 17.2064 80.6158 17.7374C82.5173 19.2598 84.2752 20.9237 85.8897 22.7293L85.1004 23.4373C85.1004 23.3665 85.1004 23.2957 85.1004 23.2603C85.1004 23.1187 85.1004 22.9771 85.1004 22.8355C85.0287 22.5168 84.8851 22.2336 84.5981 21.9504C84.4546 21.7734 84.2394 21.6672 83.9882 21.5964C83.7371 21.5255 83.4859 21.4901 83.3066 21.4901V21.3131C83.163 20.6759 82.8402 20.1094 82.302 19.6492C81.7997 19.2243 81.2257 19.0119 80.6517 19.0473C80.1135 19.0827 79.7188 19.2598 79.396 19.6138C79.2883 19.7554 79.1807 19.897 79.1089 20.074C78.9296 20.4989 78.9296 20.9591 79.1448 21.4547C79.3242 21.9504 79.683 22.3752 80.1135 22.8355C80.6158 23.3311 81.1539 23.4727 81.6562 23.3665C81.8356 23.3311 81.9791 23.1187 82.0867 22.7647C82.2302 22.3044 82.0867 21.915 81.6921 21.561C81.4409 21.3131 81.1898 21.1715 80.9028 21.1361C80.6158 21.1007 80.4005 21.1715 80.257 21.3485C80.1852 21.4193 80.1494 21.5255 80.1135 21.5964C79.8624 21.2423 79.8624 20.9237 80.1135 20.6759C80.2929 20.4635 80.544 20.3926 80.9028 20.4635C81.0822 20.4989 81.2616 20.5343 81.4051 20.6051C81.5486 20.6759 81.728 20.7821 81.8715 20.9237C82.2302 21.2777 82.4455 21.5964 82.5173 21.9504C82.5531 22.0566 82.5531 22.269 82.5531 22.623C82.5531 22.8001 82.4455 22.9063 82.2302 22.9417L83.0195 23.4373C83.2348 23.1187 83.4501 22.9417 83.5936 22.9063C83.773 22.9063 83.9165 22.9417 84.06 23.0833C84.2394 23.2603 84.347 23.4727 84.347 23.7205C84.3829 24.0038 84.347 24.1808 84.2035 24.287L81.5127 26.6236C81.5486 27.1192 81.5845 27.5795 81.6203 28.0397L86.7866 23.7913C87.0736 24.11 87.3248 24.464 87.6118 24.818L88.0065 25.3491C88.15 25.4907 88.2935 25.6677 88.437 25.8447Z" fill="#009949"/>
<path d="M88.2935 24.2518C88.0423 23.8624 87.6477 23.3667 87.0019 22.7295C87.0737 23.2605 87.1454 23.7562 87.2172 24.3226C87.2889 24.4288 87.3607 24.4996 87.3966 24.5705C87.7194 24.9953 87.8988 25.4555 87.8271 25.9512C87.7912 26.1636 87.6836 26.3406 87.4683 26.4822L83.5577 29.3145C83.5218 29.8101 83.486 30.2703 83.4501 30.766L89.1186 26.8717C89.2622 27.0487 89.3698 27.2257 89.5133 27.4027L89.8721 27.9691L90.5896 29.0666C90.5896 28.5356 90.6255 28.0045 90.6255 27.4735L90.2308 26.8717L89.8003 26.2698C89.8003 26.1636 89.8362 26.0574 89.8362 25.9866C90.0156 25.6679 90.1591 25.4555 90.2308 25.3847L90.1232 24.535C89.5492 24.9599 89.0469 25.3847 88.6164 25.7742C88.7599 25.2785 88.6522 24.7829 88.2935 24.2518Z" fill="#009949"/>
<path d="M93.2445 34.0228C93.3162 33.5272 93.4239 32.9961 93.4956 32.4651C92.4193 30.2701 91.1277 28.1459 89.7285 26.1279C89.7644 26.659 89.7644 27.19 89.7644 27.7211C90.2308 28.4291 90.6972 29.1372 91.1277 29.8807C90.4102 29.6328 89.8003 29.5266 89.1904 29.562C88.6164 29.5974 88.0782 29.7744 87.6477 30.0577C86.6072 30.7303 86.105 31.6862 86.0332 32.9253C86.0332 33.1377 86.0332 33.3502 86.105 33.5626C86.1408 33.6688 86.1767 33.775 86.2126 33.9166C86.2485 34.0228 86.3202 34.1644 86.392 34.2706C86.5714 34.6601 86.8584 34.9433 87.2171 35.1203C87.5759 35.2973 87.8988 35.3327 88.1858 35.1911C88.3652 35.1203 88.4728 35.0141 88.5446 34.8371C88.6164 34.6955 88.6522 34.5185 88.6164 34.2706C88.6522 34.0936 88.6164 33.8812 88.5087 33.6688C88.437 33.4918 88.2935 33.3502 88.1499 33.2085C87.9347 33.0315 87.7553 32.9253 87.5759 32.9253C87.3965 32.8899 87.253 32.9607 87.1095 33.0669C87.0378 33.1377 86.966 33.2439 86.8943 33.421C86.8225 33.598 86.7866 33.7042 86.7866 33.7042C86.7507 33.7396 86.7149 33.6688 86.6431 33.5626C86.8225 33.775 86.9301 33.8458 87.0019 33.775C87.0019 33.7396 86.966 33.7042 86.966 33.6688C86.8225 33.3856 86.7866 33.0315 86.8943 32.6067C87.0019 32.2527 87.1454 31.9694 87.3607 31.757C87.4683 31.6508 87.6477 31.5092 87.8271 31.403C88.2935 31.1552 88.7599 30.9781 89.2621 30.9073C89.7644 30.8365 90.2667 30.9073 90.769 31.1552C91.0201 31.2614 91.2713 31.4384 91.5224 31.6154C91.7735 31.8278 92.0247 32.0402 92.2758 32.3235C92.6346 32.8191 92.9575 33.3856 93.2445 34.0228Z" fill="#009949"/>
<path d="M96.0071 42.3068C96.1864 41.8111 96.3658 41.2801 96.5811 40.7844C95.72 37.4211 94.4285 34.164 92.7781 31.084C92.7422 31.615 92.6705 32.1815 92.5987 32.6771C92.7422 32.9249 92.8499 33.2082 92.9575 33.456L89.6927 34.9429C89.5492 35.5094 89.4415 36.0758 89.298 36.6423C89.9797 36.7131 90.6255 36.8901 91.1995 37.2441C91.8094 37.5981 92.3117 38.0938 92.7781 38.7664C92.2758 38.8018 91.8094 38.9081 91.3072 39.0497C90.7331 39.2267 89.9079 39.6869 88.9034 40.3596C88.9034 40.6782 88.8675 40.9968 88.8316 41.3155C89.6927 40.8552 90.195 40.6074 90.2667 40.572C90.4461 40.5012 90.6255 40.4304 90.8049 40.3596C91.6659 40.1118 92.7422 40.1826 94.1056 40.7136L94.3208 39.7223C94.3926 39.4037 94.4643 39.0497 94.5002 38.6956C94.1773 38.2 93.8544 37.7752 93.5674 37.4211C93.4956 37.3149 93.4239 37.2441 93.3521 37.1733C93.2804 37.1025 93.2086 36.9963 93.1369 36.9255C92.9934 36.7839 92.8499 36.6423 92.7064 36.5361C92.1682 36.1112 91.7736 35.828 91.4865 35.6156L93.6033 34.7305C94.6078 37.1733 95.433 39.7223 96.0071 42.3068Z" fill="#009949"/>
<path d="M97.0833 51.9013C97.3704 51.4765 97.6574 51.0163 97.9444 50.556L97.9085 49.6709C97.9444 49.4585 98.0162 49.3169 98.1238 49.2107C98.1955 49.2107 98.2314 49.1753 98.2673 49.2107C98.3749 49.1753 98.4825 49.1399 98.5902 49.0337C98.7337 48.7859 98.9131 48.4672 99.1283 48.007L97.6215 48.2194L96.1864 48.538L96.4017 48.3256C97.2986 47.3697 97.6574 46.6263 97.6215 46.166C97.6215 46.0598 97.5856 45.9182 97.5139 45.7058C97.4421 45.4934 97.3704 45.3164 97.2986 45.1394C97.191 44.9623 97.1192 44.8207 97.0116 44.6791C96.7963 44.3959 96.5811 44.1835 96.3299 44.0419C96.4376 43.9357 96.5452 43.794 96.6528 43.5816C96.6528 43.5816 96.7246 43.3692 96.904 43.0152C97.0116 42.6257 96.9757 42.1655 96.8681 41.7053L96.7246 41.1034C96.6887 40.891 96.6169 40.714 96.5811 40.5016L96.1505 39.2979C96.007 39.8289 95.8277 40.3245 95.6483 40.8202C95.8994 41.8469 95.9712 42.2009 95.8994 41.8469C95.9712 42.2009 95.9712 42.5195 95.8994 42.7674C95.7918 42.9798 95.72 43.1214 95.6124 43.2276C95.3971 42.8736 95.146 42.5903 94.7872 42.3425C94.4284 42.0947 94.1056 41.9885 93.8544 42.0593C93.6033 42.1301 93.388 42.3071 93.2086 42.5549C93.0651 42.8382 93.0292 43.1568 93.101 43.5108C93.1727 43.7586 93.2445 44.0065 93.4239 44.2543C93.6033 44.5021 93.7827 44.6791 93.962 44.7853C93.675 45.2102 93.5674 45.6704 93.6033 46.166C93.675 46.7679 93.8903 47.1573 94.2132 47.2989C94.4643 47.4052 94.7155 47.4052 94.9307 47.2989C95.146 47.1927 95.3254 47.0157 95.4689 46.7325C95.5406 46.5909 95.6483 46.3077 95.8277 45.8474C96.007 45.8828 96.1505 46.1306 96.2582 46.5555C96.294 46.8387 96.1864 47.1927 95.8277 47.6176C95.4689 48.0424 95.2177 48.2548 95.0384 48.2902L91.0201 48.5734C90.7331 48.9983 90.482 49.3877 90.1949 49.8126L96.904 49.4585C97.0475 50.2728 97.0475 51.0871 97.0833 51.9013Z" fill="#009949"/>
<path d="M17.5798 61.8139L7.60593 56.6805L12.2699 66.5225L14.3867 55.8662L6.56549 63.2654L17.5798 61.8139Z" fill="#EC1D25"/>
<path d="M23.7148 73.7801L12.6646 71.5498L19.9477 79.7279L18.9431 68.8945L13.5257 78.2055L23.7148 73.7801Z" fill="#EC1D25"/>
<path d="M89.8003 61.8139L99.7742 56.6805L95.1101 66.5225L92.9934 55.8662L100.815 63.2654L89.8003 61.8139Z" fill="#EC1D25"/>
<path d="M83.6653 73.7801L94.7155 71.5498L87.4324 79.7279L88.437 68.8945L93.8544 78.2055L83.6653 73.7801Z" fill="#EC1D25"/>
<path d="M60.3452 58.6629C60.3452 58.5212 60.3811 58.3796 60.3811 58.238C60.3811 57.9548 60.3452 57.707 60.3452 57.4238C60.3452 57.2113 60.4529 57.1405 60.6323 57.2821C60.7399 57.3884 60.8475 57.4946 60.9193 57.6362C61.1704 58.1318 61.3857 58.6629 61.6368 59.1939C61.7086 59.3355 61.7803 59.4771 61.8879 59.6187C61.9597 59.7249 62.0315 59.7604 62.1391 59.6541C62.4979 59.3355 62.8925 59.0169 63.2513 58.6629C63.4307 58.4504 63.3948 58.1672 63.3589 57.9194C63.323 57.6362 63.2872 57.3529 63.2513 57.0697C63.2154 56.7511 63.2872 56.5033 63.5383 56.2555C63.7177 56.1138 63.8612 55.9368 64.0406 55.7598C64.4352 55.4058 64.5787 54.9809 64.5787 54.4853C64.5787 54.2021 64.5787 53.9188 64.5787 53.6002C64.5787 53.5294 64.6146 53.4232 64.6146 53.2816C64.7581 53.4232 64.9016 53.494 65.0093 53.6002C65.2963 53.848 65.368 53.848 65.655 53.6002C65.8344 53.4586 66.0138 53.3524 66.1932 53.2816C66.3008 53.2108 66.4443 53.2462 66.4802 53.4232C66.5161 53.6002 66.6237 53.5648 66.7314 53.5648C66.9825 53.494 67.0184 53.5648 67.0542 53.8126C67.126 54.2375 67.1978 54.6977 67.3054 55.1226C67.5207 55.8306 67.6283 56.5387 67.6642 57.2467C67.7359 58.061 67.8077 58.8399 67.8794 59.6541C67.8794 59.7604 67.9512 59.8666 67.9871 59.9728C68.3817 60.6454 68.6328 61.3535 68.8122 62.097C68.884 62.3448 68.8122 62.628 68.884 62.8758C69.0275 63.6547 69.2069 64.3982 69.3504 65.177C69.3863 65.4248 69.4221 65.7081 69.458 65.9559C69.458 66.0975 69.458 66.2391 69.3504 66.3807C69.2786 66.4515 69.3145 66.5931 69.3145 66.6994C69.5298 67.726 69.5298 68.7881 69.5298 69.8502C69.5298 70.6291 69.5656 71.408 69.7092 72.1868C69.7809 72.5055 69.8168 72.8241 69.8168 73.1427C69.8168 73.2135 69.7809 73.2843 69.745 73.3551C69.6733 73.4967 69.4939 73.5321 69.3863 73.4259C69.2786 73.3197 69.171 73.1781 69.0992 73.0365C68.9557 72.7179 68.7405 72.5055 68.3817 72.5763C68.1664 72.6117 68.0588 72.5055 68.0229 72.293C67.9871 72.1868 67.9871 72.116 67.9871 72.0098C67.9512 71.7974 67.8794 71.762 67.7 71.8328C66.9825 72.116 66.5878 72.6117 66.4802 73.3905C66.3726 74.0278 66.4443 74.6296 66.7314 75.2315C67.0542 75.8687 67.2695 76.5414 67.413 77.2849C67.413 77.3203 67.413 77.3557 67.413 77.3911C67.413 77.4265 67.413 77.4265 67.3771 77.4973C67.3054 77.4265 67.2695 77.3557 67.2336 77.3203C66.9107 76.7538 66.5878 76.1874 66.2291 75.6563C66.0138 75.2669 65.7627 74.9129 65.5115 74.5588C65.2245 74.1694 65.081 73.7092 65.081 73.2135C65.081 72.8595 64.9734 72.5409 64.7222 72.2576C64.6146 72.1514 64.5787 71.939 64.5428 71.762C64.5428 71.5142 64.507 71.4434 64.2917 71.4434C63.8971 71.4788 63.8612 71.3372 63.8612 70.9831C63.8253 70.5937 63.8612 70.2397 63.8253 69.8502C63.8253 69.6732 63.7177 69.5316 63.6818 69.39C63.6459 69.2484 63.6459 69.1068 63.6459 69.0005C63.7177 68.6819 63.7536 68.3279 63.9329 68.0447C63.9688 68.0093 63.9688 67.9031 63.9688 67.8323C63.7536 67.018 63.5024 66.2037 63.2872 65.4248C63.1795 65.0354 63.036 64.6106 62.8925 64.2211C62.6055 63.3715 62.0673 62.6634 61.4215 62.0261C61.1704 61.7783 60.8475 61.5659 60.5605 61.3535C60.3811 61.2119 60.1658 61.2473 59.9147 61.3181C60.0223 61.4597 60.13 61.5305 60.1658 61.6367C60.2376 61.7783 60.3452 61.9553 60.3811 62.097C60.417 62.3094 60.3094 62.4156 60.0941 62.3448C59.843 62.274 59.3766 62.5218 59.3407 62.805C59.3048 62.9466 59.4124 62.9466 59.4842 62.9112C59.5918 62.9112 59.7353 62.8758 59.843 62.8404C59.8071 63.0882 59.6636 63.1944 59.4483 63.159C59.233 63.1236 59.0537 63.159 58.946 63.3361C58.6949 63.6547 58.4796 63.6193 58.1926 63.4069C57.798 63.1236 57.4033 62.805 57.0087 62.5218C56.5423 62.1678 56.1117 61.7783 55.8247 61.2827C55.6453 60.9641 55.5377 60.61 55.3583 60.2914C55.1431 59.902 54.856 59.5479 54.6049 59.2293C54.5331 59.1585 54.3896 59.1585 54.3179 59.0877C54.282 59.0523 54.2103 59.0169 54.2103 58.9815C54.2461 58.7691 54.3179 58.5921 54.3896 58.3796C54.4255 58.3442 54.5331 58.3088 54.6408 58.3088C54.7484 58.3088 54.7843 58.2734 54.7843 58.1672C54.8202 57.9194 54.8202 57.6716 54.8919 57.4238C54.9637 57.1405 54.9278 56.8927 54.8202 56.6449C54.6767 56.2201 54.4973 55.8306 54.3538 55.4058C54.3538 55.3704 54.3179 55.3704 54.282 55.2996C54.3179 55.6182 54.3538 55.866 54.3538 56.1138C54.3896 56.5741 54.3896 56.5741 53.9232 56.6803C54.0309 56.7865 54.1385 56.8927 54.2461 56.9989C54.6049 57.2821 54.6049 57.3529 54.4255 57.7778C54.282 58.0964 54.1385 58.4504 54.0667 58.8045C53.995 59.3001 54.3179 59.725 54.569 60.1144C54.6767 60.256 54.7843 60.3622 54.8919 60.5038C55.0713 60.7162 55.1431 60.9641 55.0354 61.2119C55.4659 61.3181 55.6095 61.4951 55.466 61.8137C55.3583 61.7783 55.2866 61.7429 55.1789 61.7075L55.1431 61.7429C55.1789 61.8491 55.2148 61.9907 55.2866 62.097C55.5018 62.4864 55.753 62.8758 56.0041 63.2299C56.4346 63.7609 56.5781 64.3273 56.4346 65.0354C56.2911 65.7435 56.1117 66.4161 55.5736 66.9472C55.4659 67.0534 55.3224 67.1596 55.1789 67.2658C54.856 67.4782 54.569 67.726 54.3896 68.1155C54.3179 68.2217 54.2461 68.3279 54.1385 68.4341C53.995 68.5403 53.8874 68.4695 53.9232 68.3279C53.995 68.0447 54.0667 67.7968 54.1744 67.5136C54.1744 67.4782 54.2103 67.4074 54.2103 67.372C54.0667 67.5136 53.9591 67.6552 53.8156 67.7614C53.4927 68.0447 53.1339 68.2925 52.811 68.5757C52.7752 68.6111 52.7393 68.6111 52.6675 68.6465C52.4164 68.7173 52.3805 68.7173 52.2729 68.3987C52.2011 68.5049 52.0935 68.5757 52.0576 68.6465C51.7706 69.036 51.4836 69.1422 51.1248 69.036C50.6225 68.8943 50.2279 68.5049 50.2279 68.0801C50.2279 67.8677 50.3355 67.6906 50.5508 67.6198C50.2279 67.5136 50.1203 67.549 50.0126 67.8323C49.9768 67.9739 49.8332 67.9739 49.7974 67.9031C49.6539 67.726 49.5462 67.549 49.4386 67.372C49.3668 67.2658 49.331 67.1242 49.2592 66.9826C49.2233 66.9472 49.1516 66.9118 49.1157 66.9118C49.0798 66.9118 49.044 66.9826 49.044 67.0534C49.044 67.1596 49.044 67.3012 49.0798 67.4074C49.0798 67.5136 49.1157 67.5844 49.1516 67.6906C49.2592 68.3279 48.9722 68.7173 48.3264 68.7527C48.1829 68.7527 48.0394 68.7881 47.8959 68.7881C47.7524 68.8235 47.7165 68.8589 47.7883 69.0005C47.9676 69.2484 47.9318 69.2838 47.6447 69.4254C47.4654 69.4962 47.3219 69.6378 47.1425 69.7794C46.999 69.921 46.8913 69.921 46.8196 69.744C46.7119 69.4962 46.6761 69.213 46.6043 68.9651C46.5684 68.7527 46.6043 68.5049 46.5684 68.2925C46.5684 68.2217 46.4967 68.0801 46.4249 68.0801C46.3173 68.0801 46.1738 68.1509 46.1379 68.2217C46.102 68.3987 46.0662 68.5757 46.102 68.7527C46.1379 69.036 46.1379 69.3192 45.9226 69.5316C45.7433 69.7086 45.5998 69.7086 45.4204 69.4962C45.241 69.3192 45.0975 69.1068 44.9181 68.8589C44.8822 69.1068 44.8822 69.3192 44.8463 69.5316C44.8105 69.7086 44.7746 69.8856 44.7028 70.0272C44.5952 70.2397 44.3799 70.2751 44.2005 70.2043C44.2005 69.9564 44.2005 69.6732 44.2005 69.4254C44.2005 69.3546 44.1288 69.2484 44.0929 69.1776C44.0212 69.0714 43.9494 68.9651 43.8059 69.036C43.7341 69.1068 43.6983 69.213 43.6624 69.3192V69.3546C43.6624 69.4608 43.6624 69.5316 43.6624 69.6378C43.5548 69.6024 43.4113 69.6024 43.3036 69.5316C43.0525 69.3192 42.9807 69.0006 42.9807 68.6819C42.9807 68.5049 42.9807 68.3633 43.0525 68.1509C43.0884 68.2925 43.1601 68.3987 43.196 68.5403H43.2319C43.2319 68.5049 43.2319 68.5049 43.2319 68.4695C43.2677 67.5844 43.2319 66.6994 43.0166 65.8143C42.9807 65.6019 42.8731 65.4248 42.8013 65.2478C42.622 64.8938 42.5143 64.5044 42.5143 64.0795C42.5143 63.9025 42.5143 63.6901 42.4784 63.5131C42.4784 63.4069 42.4426 63.3007 42.4067 63.2653C42.1556 62.982 42.1914 62.6634 42.1914 62.3448C42.1914 62.0262 42.1197 61.7075 42.0838 61.3889C42.0838 61.2827 42.0479 61.2119 42.1556 61.1765C42.3349 61.1057 42.3349 60.9287 42.3349 60.787C42.3349 60.6454 42.3349 60.4684 42.1197 60.3976C41.9044 60.3622 41.8327 60.1498 41.8327 59.9728C41.725 59.4417 41.725 58.9107 41.9403 58.3796C42.012 58.238 42.1197 58.1318 42.1914 57.9902C42.2632 57.9194 42.3708 57.8486 42.4426 57.8132C42.4426 57.7778 42.4067 57.7424 42.4067 57.707C42.2273 57.6362 42.0838 57.5654 41.9044 57.53C41.6174 57.4946 41.3304 57.4592 41.0434 57.4592C40.7563 57.4592 40.5411 57.2821 40.5411 56.9989C40.5411 56.7865 40.6128 56.5741 40.6846 56.3617C40.7563 56.1846 40.864 56.0076 40.9357 55.7952C41.0075 55.5474 40.9716 55.4412 40.7563 55.2996C40.6128 55.2288 40.4693 55.158 40.3617 55.0872C40.1823 54.9809 40.0747 54.8393 40.0388 54.6269C40.0029 54.5207 39.8953 54.3791 39.7518 54.3083C39.5724 54.2375 39.5006 54.0959 39.5006 53.9189C39.4648 53.4232 39.5365 52.9276 39.7159 52.4673C39.7518 52.3611 39.8594 52.2903 39.9671 52.2195C40.2541 52.0779 40.4335 51.8655 40.6128 51.6177C40.7205 51.4406 40.7563 51.2282 40.6846 50.9804C40.577 50.5202 40.577 50.0245 40.5052 49.5289C40.4693 49.2456 40.3976 48.9978 40.2899 48.75C40.1106 48.3606 39.7518 48.1836 39.3571 48.1482C39.0342 48.1128 38.7472 48.1128 38.4243 48.0065C38.245 47.9711 38.0656 47.8295 37.9221 47.6879C37.7785 47.5817 37.6709 47.4755 37.5274 47.3693C37.3121 47.2277 37.0969 47.1569 36.8457 47.2985C36.8099 47.3339 36.7381 47.3339 36.6664 47.3339C36.4511 47.3693 36.3793 47.3339 36.3793 47.0861C36.3793 46.8736 36.3793 46.6258 36.4152 46.4134C36.4152 46.024 36.3435 45.9178 36.0206 45.847C35.5183 45.7053 35.3748 45.4221 35.6259 44.9265C35.7336 44.7495 35.8771 44.5724 35.9847 44.3954C36.0923 44.2184 36.2358 44.006 36.3076 43.7936C36.3435 43.6874 36.3076 43.5812 36.3076 43.475C36.2717 43.2625 36.3076 43.2271 36.487 43.2271C36.7381 43.2625 36.9893 43.2979 37.2404 43.3687C37.4557 43.4395 37.635 43.4041 37.7786 43.2271C38.2091 42.8023 38.3885 42.3067 38.4602 41.7402C38.4961 41.5278 38.5678 41.28 38.6755 41.0675C38.7114 40.9967 38.8549 40.9259 38.9266 40.9613C39.5365 41.1384 40.1823 41.1029 40.7922 41.1384C41.151 41.1384 41.4739 41.1384 41.8327 41.1384C42.1197 41.1384 42.1914 41.0675 42.2273 40.7843C42.2632 40.6781 42.3708 40.5719 42.4426 40.4303C42.3708 40.3595 42.2632 40.2533 42.1197 40.1825C41.8685 40.0055 41.6174 39.8638 41.4739 39.5452C41.4021 39.3682 41.3663 39.2266 41.3304 39.0496C41.2945 38.8018 41.1869 38.6955 40.9357 38.6955C40.5052 38.6601 40.1106 38.6601 39.68 38.6247C39.2136 38.5893 38.6396 38.0583 38.4961 37.598C38.4243 37.421 38.3167 37.244 38.1732 37.1378C37.8144 36.8192 37.3839 36.536 36.9893 36.2527C36.8816 36.1819 36.774 36.1465 36.6664 36.1465C35.9129 36.0757 35.7694 35.8633 35.8771 35.049C35.9129 34.872 36.0564 34.695 36.1282 34.518C36.2358 34.3056 36.3793 34.0577 36.4152 33.8099C36.487 33.4559 36.6664 33.1727 36.9534 32.9956C37.348 32.7124 37.7068 32.4292 37.9579 31.969C38.0656 31.7919 38.2808 31.6857 38.4602 31.5441C38.4602 31.5441 38.4961 31.5441 38.532 31.5087C38.7114 31.4025 38.9625 31.3317 38.9266 31.0485C38.8907 30.8361 38.6396 30.5882 38.3526 30.5528C38.1732 30.5528 37.9579 30.5882 37.7786 30.6236C37.7427 30.6236 37.7068 30.6236 37.635 30.6236C37.635 30.5882 37.635 30.5528 37.635 30.5528C37.7427 30.1634 37.8503 29.774 37.9579 29.3845C37.9579 29.3491 37.9938 29.3137 37.9938 29.2783C38.0656 29.2075 38.1373 29.1721 38.2091 29.1367C38.245 29.2075 38.3526 29.2783 38.3526 29.3491C38.3526 29.7386 38.6037 29.9156 38.8907 30.0926C39.1419 30.2342 39.4289 30.3404 39.6442 30.5174C39.9312 30.7299 40.2182 30.9777 40.4335 31.2609C40.6487 31.5441 40.6128 31.6857 40.3617 32.0044C40.5411 31.969 40.6487 31.969 40.7922 31.969C41.1869 31.8982 41.2228 31.9336 41.4021 32.2876C41.438 32.323 41.4739 32.3584 41.4739 32.4292C41.5098 32.4292 41.5098 32.3938 41.5456 32.3938C41.8327 32.0752 41.8327 32.1106 42.1914 32.2522C42.3708 32.323 42.5502 32.3938 42.7296 32.4292C42.909 32.4646 42.9807 32.3584 42.8731 32.2168C42.7655 32.0398 42.622 31.8982 42.4784 31.7211C42.3349 31.5441 42.1914 31.4025 42.1197 31.1901C42.012 30.9777 42.1197 30.8361 42.3708 30.8361C42.8731 30.8361 43.3754 31.1901 43.483 31.6857C43.6265 32.2522 43.8059 32.8186 44.1288 33.3143C44.2005 33.4205 44.3441 33.5267 44.4517 33.5975C44.5952 33.7037 44.7387 33.8099 44.8463 33.9161C45.0975 34.164 45.3486 34.3056 45.7433 34.2702C45.9585 34.2348 46.1738 34.341 46.3891 34.4118C46.4608 34.4472 46.5326 34.4826 46.6043 34.518C46.9631 34.695 47.0348 34.695 47.0348 34.2702C47.0348 34.0931 47.1425 33.9869 47.3577 33.9515C47.286 33.8453 47.2501 33.7745 47.2142 33.7037C47.0707 33.5621 47.0707 33.3851 47.1425 33.2081C47.2501 33.0311 47.3577 32.854 47.5012 32.7124C47.6447 32.5708 47.7524 32.6062 47.7883 32.8186C47.7883 32.8894 47.7883 32.9602 47.8241 33.0311C47.86 33.0665 47.9318 33.1373 47.9676 33.1373C48.147 33.0665 48.2547 33.1727 48.3264 33.2789C48.434 33.4913 48.5417 33.7037 48.6134 33.9515C48.7211 34.3056 48.8646 34.6596 49.1157 34.9428C49.2233 35.049 49.2592 35.1552 49.1157 35.2968C49.044 35.3677 49.0081 35.4739 49.0081 35.5801C49.0081 35.9695 49.0081 36.3589 49.0081 36.713C49.0081 37.3502 49.0081 37.9875 49.0081 38.6601C49.0081 38.9434 48.9363 39.2266 48.9004 39.5452C48.9004 39.6868 48.9004 39.8284 48.9004 39.9346C48.9363 40.1471 49.0798 40.3595 49.2951 40.3595C49.8332 40.3949 50.3355 40.6073 50.8019 40.8197C51.5554 41.1738 52.3446 41.3154 53.1698 41.3508C54.4614 41.3862 55.753 41.3862 57.0804 41.3508C57.6545 41.3508 58.2285 41.2446 58.8384 41.2446C59.4124 41.2092 59.9506 41.28 60.4887 41.457C61.3139 41.7402 62.175 41.7402 63.036 41.5986C63.6459 41.4924 64.2558 41.4216 64.8657 41.3154C65.4757 41.2446 66.0138 41.457 66.5161 41.7756C66.9466 42.0234 67.4489 42.2712 67.9153 42.4837C68.0947 42.5899 68.2382 42.6607 68.3099 42.9085C68.3458 43.0147 68.4893 43.1563 68.597 43.2271C68.7405 43.3333 68.884 43.3687 68.884 43.5458C68.884 43.7228 68.7763 43.8644 68.597 43.9352C68.3099 44.0414 68.0229 44.1122 67.7359 44.183C67.3413 44.2892 67.3054 44.36 67.1978 44.7495C67.0542 45.2451 66.839 45.7407 66.6237 46.201C66.4085 46.6612 66.1932 47.1215 66.1573 47.6525C66.1214 47.9357 66.0497 47.9711 65.7627 48.0065C65.5474 48.0419 65.2963 48.1482 65.081 48.219C64.7581 48.3606 64.6505 48.6084 64.6146 48.927C64.6146 49.1394 64.5787 49.3873 64.5428 49.5997C64.507 49.7059 64.3993 49.7767 64.3276 49.8475C64.2558 49.7767 64.1482 49.7059 64.1123 49.6351C64.0047 49.4227 63.7536 49.3165 63.5742 49.3165C63.3948 49.3519 63.323 49.4227 63.3948 49.5997C63.4307 49.7413 63.4665 49.8475 63.2872 49.8829C63.1078 49.9183 62.9643 49.8475 62.8925 49.6705C62.8566 49.5997 62.8208 49.5289 62.7849 49.4935C62.7131 49.5289 62.6055 49.5643 62.5696 49.6351C62.4979 49.7413 62.462 49.8475 62.462 49.9537C62.3902 50.2369 62.3185 50.3077 62.0315 50.3077C61.8521 50.3077 61.6368 50.3077 61.4574 50.3077C61.278 50.3077 61.0987 50.2723 60.9193 50.3077C60.6323 50.3077 60.5605 50.3785 60.5605 50.6618C60.5605 50.8034 60.5246 50.9096 60.4887 51.0512C60.4529 51.1574 60.3811 51.2282 60.2376 51.2282C59.843 51.2282 59.6277 51.476 59.5201 51.8301C59.4483 52.1487 59.4124 52.4673 59.3766 52.7506C59.3407 52.9984 59.2689 53.0692 59.0537 53.14C58.946 53.1754 58.8384 53.2462 58.8384 53.317C58.8025 53.3878 58.8743 53.5294 58.946 53.6002C59.0895 53.7064 59.1613 53.7772 58.9819 53.9543C58.9101 53.9897 58.946 54.1667 58.9819 54.2729C59.0895 54.5915 59.1972 54.9101 59.3407 55.2288C59.7353 56.1138 60.0223 57.0343 60.1658 57.9902C60.2017 58.2734 60.2735 58.5212 60.4529 58.7337C60.2735 58.6629 60.3094 58.6629 60.3452 58.6629ZM54.8919 63.0882C54.856 63.0882 54.856 63.0882 54.8202 63.0882C54.7843 63.159 54.7843 63.2653 54.7484 63.3361C54.7484 63.5839 54.7484 63.8317 54.7125 64.0795C54.6767 64.3982 54.6408 64.7168 54.4614 65C53.995 65.8143 53.3851 66.5577 52.7034 67.1596C52.6317 67.2304 52.4882 67.2658 52.3805 67.3012C52.3446 67.3012 52.2729 67.3366 52.2729 67.372C52.237 67.549 52.237 67.726 52.2011 67.9031C52.237 67.9031 52.237 67.9385 52.2729 67.9385C52.3805 67.7968 52.4882 67.6198 52.6317 67.5136C52.811 67.3366 53.0263 67.1596 53.2416 67.0534C53.421 66.9826 53.5286 66.9118 53.5645 66.6994C53.5645 66.5931 53.6721 66.5223 53.7439 66.4515C53.7797 66.4161 53.8515 66.3807 53.8874 66.3099C53.995 66.1683 54.0667 65.9913 54.1385 65.8497C54.2461 65.6727 54.3538 65.4602 54.4973 65.354C54.6767 65.2478 54.7484 65.1416 54.7843 64.9646C54.9278 64.4336 54.9637 63.9025 54.8919 63.3715C54.9637 63.2653 54.8919 63.1944 54.8919 63.0882ZM49.5462 54.2729C49.8333 54.4499 50.1561 54.5915 50.479 54.7331C50.5867 54.7685 50.7302 54.8039 50.8737 54.8039C50.9454 54.8039 51.0172 54.6977 51.0531 54.6623C50.9813 54.5915 50.9454 54.4853 50.8737 54.4853C50.4432 54.3791 50.0126 54.3437 49.5462 54.2729ZM51.4477 55.6536C51.6989 55.7598 52.3088 55.689 52.524 55.512C52.2011 55.2288 51.5553 55.335 51.4477 55.6536ZM46.1738 67.1242C46.1738 67.4074 46.3173 67.5136 46.4608 67.4782C46.7478 67.372 46.8913 66.9826 46.7478 66.6994C46.6043 66.8764 46.5326 67.2304 46.1738 67.1242ZM53.0263 56.3971C53.2057 56.2201 53.2416 55.7952 53.0981 55.6536C53.0263 55.5828 52.9546 55.5828 52.9187 55.689C52.8828 55.9368 52.9187 56.1846 53.0263 56.3971ZM48.8646 65C48.8287 65 48.7928 65.0354 48.7928 65.0354C48.8287 65.3186 48.8646 65.6019 49.0798 65.8143C49.1157 65.8143 49.1516 65.7789 49.1516 65.7789C49.044 65.5311 48.9363 65.2832 48.8646 65ZM45.9226 65.177C45.9226 65.3186 45.9226 65.4602 45.9226 65.6019C46.0303 65.4602 46.102 65.3186 45.9226 65.177Z" fill="#FAED25"/>
<path d="M57.188 67.1246C57.2957 66.8768 57.3316 66.6998 57.4033 66.5227C57.6545 66.0271 57.7621 65.4961 57.798 64.9296C57.798 64.6464 57.9056 64.3632 58.0132 64.0799C58.085 63.9029 58.1926 63.9029 58.3361 64.0445C58.8025 64.5402 58.8743 65.2128 58.5514 65.8501C58.3002 66.3811 57.9056 66.7352 57.4033 67.0184C57.4033 67.0892 57.3316 67.0892 57.188 67.1246Z" fill="#FAED25"/>
<path d="M61.7086 63.8673C61.6368 63.9735 61.6009 64.1505 61.4933 64.1859C61.3857 64.2213 61.2422 64.1859 61.1345 64.1505C60.6681 63.9027 60.3811 63.1238 60.5605 62.6282C60.6322 62.4157 60.7758 62.3449 60.9551 62.4511C61.278 62.6636 61.6727 63.4424 61.7086 63.8673Z" fill="#FAED25"/>
<path d="M56.6858 66.5578C56.901 65.8851 57.0087 65.2125 57.2957 64.5752C57.6544 65 57.2598 66.2745 56.6858 66.5578Z" fill="#FAED25"/>
<path d="M56.327 62.6636C56.614 62.5928 57.1522 62.8407 57.2239 63.0885C57.2598 63.2301 57.2239 63.3009 57.0804 63.3009C56.8652 63.3009 56.3629 62.9115 56.327 62.6991C56.327 62.7345 56.327 62.699 56.327 62.6636Z" fill="#FAED25"/>
<path d="M57.8338 63.9729C57.7621 64.0791 57.6903 64.2207 57.5827 64.2561C57.4392 64.327 57.2598 64.2916 57.1163 64.327L57.0804 64.1853C57.188 64.0437 57.2957 63.9021 57.4392 63.7959C57.6186 63.6189 57.798 63.7251 57.8338 63.9729Z" fill="#FAED25"/>
<path d="M55.2148 67.4785C55.2148 67.5139 55.2866 67.5847 55.2507 67.6555C55.1789 67.9034 55.0354 68.0804 54.7843 68.222C54.6408 68.2928 54.4973 68.1866 54.5331 68.045C54.569 67.8325 54.9637 67.4785 55.2148 67.4785Z" fill="#FAED25"/>
<path d="M55.6453 67.8672C55.6453 67.9026 55.7171 67.938 55.7171 67.9734C55.7171 68.115 55.5736 68.3274 55.4659 68.292C55.4301 68.292 55.3583 68.2212 55.3583 68.1858C55.3224 68.0796 55.4659 67.9026 55.6453 67.8672Z" fill="#FAED25"/>
<path d="M54.4614 56.5742C54.5332 56.6804 54.6408 56.7866 54.7125 56.9282C54.7484 56.9637 54.7125 57.0345 54.6767 57.0699C54.6408 57.0699 54.569 57.0345 54.569 57.0345C54.4973 56.9283 54.4255 56.7866 54.3896 56.645C54.3896 56.6096 54.4255 56.6096 54.4614 56.5742Z" fill="#FAED25"/>
<path d="M140.064 3.85938H126.503V63.3365H140.064V3.85938Z" fill="#07A74D"/>
<path d="M160.048 33.5625C160.048 20.782 168.443 14.5865 179.242 14.5865C184.049 14.5865 187.888 15.6132 190.687 16.7107V5.38171C187.816 4.56744 183.655 3.85938 178.632 3.85938C160.406 3.85938 145.769 14.7635 145.769 34.306C145.769 50.6268 156.496 62.9825 177.305 62.9825C183.045 62.9825 187.745 62.2036 190.687 61.2831V50.379C187.996 51.4057 183.439 52.2553 179.35 52.2553C167.187 52.2908 160.048 45.0685 160.048 33.5625Z" fill="#07A74D"/>
<path d="M196.463 3.85938V15.0821H212.321V63.0179H225.739V15.0821H241.883V3.85938H196.463Z" fill="#07A74D"/>
<path d="M126.933 72.8242C128.548 72.5764 130.628 72.3994 132.853 72.3994C136.512 72.3994 138.916 73.0721 140.782 74.4882C142.791 76.0105 144.046 78.4179 144.046 81.8874C144.046 85.6402 142.683 88.2246 140.818 89.8177C138.773 91.5171 135.687 92.3667 131.884 92.3667C129.624 92.3667 128.009 92.2251 126.933 92.0835V72.8242ZM131.31 88.8264C131.669 88.8972 132.279 88.8972 132.817 88.8972C136.763 88.9326 139.347 86.7022 139.347 82.029C139.382 77.9577 137.015 75.7981 133.247 75.7981C132.279 75.7981 131.633 75.8689 131.274 75.9751V88.8264H131.31Z" fill="#07A74D"/>
<path d="M151.294 72.541V92.1543H146.917V72.541H151.294Z" fill="#07A74D"/>
<path d="M159.653 92.1545L153.446 72.5413H158.218L160.586 80.8256C161.232 83.1622 161.842 85.3926 162.308 87.8354H162.38C162.882 85.4634 163.456 83.1622 164.138 80.8964L166.613 72.5059H171.277L164.748 92.1192H159.653V92.1545Z" fill="#07A74D"/>
<path d="M177.699 72.541V92.1543H173.322V72.541H177.699Z" fill="#07A74D"/>
<path d="M181.646 87.5876C182.83 88.1894 184.623 88.8267 186.489 88.8267C188.498 88.8267 189.575 87.977 189.575 86.7025C189.575 85.4634 188.642 84.7907 186.346 83.9411C183.117 82.8082 181.036 81.0026 181.036 78.135C181.036 74.7717 183.798 72.2227 188.355 72.2227C190.543 72.2227 192.158 72.6829 193.306 73.2139L192.337 76.7896C191.548 76.4002 190.184 75.8692 188.283 75.8692C186.381 75.8692 185.485 76.7542 185.485 77.7455C185.485 78.9846 186.561 79.5511 189.072 80.507C192.481 81.7815 194.095 83.587 194.095 86.3485C194.095 89.641 191.584 92.4378 186.274 92.4378C184.049 92.4378 181.897 91.8714 180.785 91.2341L181.646 87.5876Z" fill="#07A74D"/>
<path d="M201.378 72.541V92.1543H197.001V72.541H201.378Z" fill="#07A74D"/>
<path d="M222.868 82.1709C222.868 88.6142 219.03 92.5086 213.361 92.5086C207.621 92.5086 204.248 88.1186 204.248 82.5249C204.248 76.648 207.944 72.258 213.648 72.258C219.639 72.2226 222.868 76.7542 222.868 82.1709ZM208.912 82.4187C208.912 86.2776 210.706 88.9683 213.612 88.9683C216.554 88.9683 218.276 86.1006 218.276 82.3125C218.276 78.8076 216.626 75.7629 213.612 75.7629C210.634 75.7629 208.912 78.5952 208.912 82.4187Z" fill="#07A74D"/>
<path d="M225.739 92.1543V72.541H230.833L234.851 79.7278C235.999 81.7812 237.148 84.224 238.009 86.4544H238.08C237.793 83.87 237.722 81.2148 237.722 78.2763V72.541H241.74V92.1543H237.147L233.022 84.6135C231.874 82.5247 230.618 79.9757 229.649 77.6745L229.577 77.7099C229.685 80.2943 229.757 83.0557 229.757 86.2774V92.1897H225.739V92.1543Z" fill="#07A74D"/>
<path d="M7.74945 129.611H9.68681V124.442H15.2119V122.707H9.68681V119.485H15.9653V117.786H7.74945V129.611Z" fill="#EC1D25"/>
<path d="M32.9352 126C32.9352 126.425 32.8275 126.814 32.6482 127.133C32.2176 127.876 31.3925 128.266 30.1726 128.266C29.3833 128.266 28.7017 128.089 28.1994 127.699C27.6971 127.31 27.446 126.743 27.446 126V117.751H25.5445V126C25.5445 126.885 25.7956 127.664 26.2262 128.301C27.0513 129.399 28.3788 129.965 30.1726 129.965C31.3207 129.965 32.3253 129.717 33.1146 129.222C34.2626 128.514 34.8725 127.416 34.8725 126V117.751H32.9711V126H32.9352Z" fill="#EC1D25"/>
<path d="M44.0929 119.485H47.8959V129.611H49.8333V119.485H53.6003V117.786H44.0929V119.485Z" fill="#EC1D25"/>
<path d="M70.3549 126C70.3549 126.425 70.2473 126.814 70.0679 127.133C69.6374 127.876 68.8122 128.266 67.5924 128.266C66.8031 128.266 66.1214 128.089 65.6192 127.699C65.1169 127.31 64.8658 126.743 64.8658 126V117.751H62.9643V126C62.9643 126.885 63.2154 127.664 63.6459 128.301C64.4711 129.399 65.7986 129.965 67.5924 129.965C68.7405 129.965 69.745 129.717 70.5343 129.222C71.6824 128.514 72.2923 127.416 72.2923 126V117.751H70.3908V126H70.3549Z" fill="#EC1D25"/>
<path d="M91.9888 128.549C91.8812 128.372 91.7377 127.911 91.7018 126.743C91.7018 125.823 91.5942 125.15 91.4148 124.725C91.2354 124.336 90.9125 124.017 90.4102 123.769C90.5178 123.698 90.6255 123.628 90.7331 123.557C91.5583 122.99 91.9529 122.141 91.9529 121.043C91.9529 120.583 91.8812 120.158 91.7735 119.804C91.3071 118.459 90.1232 117.786 88.2217 117.786H82.6608V129.646H84.5623V124.725H88.15C88.3652 124.725 88.5805 124.761 88.724 124.796C89.4774 124.938 89.8362 125.539 89.8362 126.566V127.593C89.8362 128.372 89.9438 129.009 90.195 129.54L90.2667 129.682H92.4193V129.009L92.3117 128.938C92.1682 128.761 92.0606 128.655 91.9888 128.549ZM84.5981 119.485H87.9347C88.6522 119.485 89.1545 119.627 89.4415 119.875C89.8003 120.158 89.9797 120.618 89.9797 121.256C89.9797 121.468 89.9438 121.645 89.9079 121.822C89.7286 122.601 89.0828 122.99 87.9347 122.99H84.5981V119.485Z" fill="#EC1D25"/>
<path d="M104.151 124.442H110.43V122.707H104.151V119.485H110.681V117.786H102.214V129.611H110.968V127.911H104.151V124.442Z" fill="#EC1D25"/>
<path d="M135.615 117.786H133.678V129.646H135.615V117.786Z" fill="#EC1D25"/>
<path d="M152.298 123.203L149.392 122.424C148.962 122.317 148.639 122.211 148.388 122.07C147.885 121.822 147.67 121.468 147.67 120.937C147.67 120.618 147.742 120.335 147.921 120.087C148.316 119.485 148.998 119.202 150.038 119.202C150.433 119.202 150.791 119.237 151.114 119.308C152.155 119.591 152.693 120.229 152.693 121.291V121.503H154.523V121.291C154.523 120.583 154.379 119.91 154.056 119.379C153.339 118.14 152.011 117.538 150.074 117.538C149.069 117.538 148.208 117.715 147.491 118.105C146.307 118.742 145.733 119.733 145.733 121.114C145.733 122.601 146.558 123.557 148.172 123.981L151.042 124.725C151.186 124.76 151.294 124.796 151.401 124.831C152.478 125.15 152.98 125.681 152.98 126.353V126.53C152.908 127.062 152.693 127.451 152.262 127.77C151.832 128.053 151.15 128.23 150.253 128.23C149.105 128.23 148.244 127.947 147.742 127.345C147.347 126.884 147.168 126.353 147.204 125.752V125.539H145.338V125.752C145.338 126.778 145.589 127.593 146.056 128.23C146.917 129.363 148.28 129.965 150.11 129.965C151.545 129.965 152.693 129.646 153.518 129.044L153.733 128.867C154.415 128.23 154.81 127.416 154.845 126.495V126.283C154.845 125.964 154.81 125.681 154.738 125.398C154.487 124.3 153.626 123.557 152.298 123.203Z" fill="#EC1D25"/>
<path d="M184.659 122.707H179.134V117.786H177.233V129.611H179.134V124.442H184.659V129.611H186.561V117.786H184.659V122.707Z" fill="#EC1D25"/>
<path d="M198.831 124.442H205.145V122.707H198.831V119.485H205.396V117.786H196.929V129.611H205.647V127.911H198.831V124.442Z" fill="#EC1D25"/>
<path d="M225.021 128.549C224.913 128.372 224.77 127.911 224.734 126.743C224.734 125.823 224.626 125.15 224.447 124.725C224.268 124.336 223.945 124.017 223.442 123.769C223.55 123.698 223.658 123.628 223.765 123.557C224.591 122.99 224.985 122.141 224.985 121.043C224.985 120.583 224.913 120.158 224.806 119.804C224.339 118.459 223.155 117.786 221.254 117.786H215.693V129.646H217.594V124.725H221.182C221.397 124.725 221.613 124.761 221.756 124.796C222.51 124.938 222.868 125.539 222.868 126.566V127.593C222.868 128.372 222.976 129.009 223.227 129.54L223.299 129.682H225.452V129.009L225.344 128.938C225.2 128.761 225.093 128.655 225.021 128.549ZM217.63 119.485H220.967C221.684 119.485 222.187 119.627 222.474 119.875C222.833 120.158 223.012 120.618 223.012 121.256C223.012 121.468 222.976 121.645 222.94 121.822C222.761 122.601 222.115 122.99 220.967 122.99H217.63V119.485Z" fill="#EC1D25"/>
<path d="M237.183 127.911V124.442H243.462V122.707H237.183V119.485H243.713V117.786H235.246V129.611H244V127.911H237.183Z" fill="#EC1D25"/>
</g>
<defs>
<clipPath id="clip0_3366_88">
<rect width="244" height="130" fill="white"/>
</clipPath>
</defs>
</svg>
