<svg width="124" height="130" viewBox="0 0 124 130" fill="none" xmlns="http://www.w3.org/2000/svg">
<g clip-path="url(#clip0_3367_242)">
<path d="M59.7452 97.4896C56.6373 101.006 52.8751 103.992 48.4586 106.486C44.0422 108.981 39.2985 110.248 34.1869 110.248C29.4432 110.248 25.0267 109.39 20.9374 107.713C16.8072 105.995 13.2086 103.665 10.1007 100.598C6.99277 97.5714 4.53916 93.9728 2.73986 89.8017C0.899654 85.6714 0 81.1323 0 76.2251C0 71.4814 0.858761 67.0241 2.61718 62.812C4.37559 58.6 6.7883 54.9196 9.8553 51.8117C12.9223 48.7038 16.5618 46.2502 20.7738 44.4509C24.9858 42.6516 29.5659 41.752 34.4731 41.752C39.0123 41.752 43.347 42.6925 47.4363 44.5327C51.5665 46.3729 55.1651 48.8674 58.273 51.9753C61.3809 55.0832 63.8754 58.7227 65.7156 62.8938C67.5558 67.0649 68.4964 71.5223 68.4964 76.2251V106.159C68.4964 107.386 68.0874 108.449 67.2287 109.267C66.3699 110.126 65.3476 110.535 64.1208 110.535C62.894 110.535 61.8308 110.126 61.0129 109.267C60.1541 108.408 59.7452 107.386 59.7452 106.159V97.4896ZM59.7452 76.2251C59.7452 72.7082 59.0909 69.3959 57.7414 66.288C56.4328 63.1801 54.5926 60.4402 52.2617 58.1502C49.9308 55.8193 47.2318 54.02 44.083 52.6705C40.9752 51.3619 37.6628 50.6667 34.146 50.6667C30.6291 50.6667 27.3577 51.321 24.2907 52.6705C21.2237 53.9791 18.5247 55.8193 16.1938 58.1502C13.8628 60.4811 12.0635 63.1801 10.7141 66.288C9.40547 69.3959 8.71029 72.7082 8.71029 76.2251C8.71029 79.7419 9.36458 83.0134 10.7141 86.0804C12.0226 89.1474 13.8628 91.8463 16.1938 94.1773C18.5247 96.5082 21.2237 98.3075 24.2907 99.657C27.3577 100.966 30.67 101.661 34.146 101.661C37.5401 101.661 40.7707 101.006 43.7968 99.7387C46.8229 98.471 49.481 96.6717 51.8119 94.4226C54.1428 92.1326 55.983 89.4745 57.3325 86.4075C58.7638 83.2996 59.5407 79.9055 59.7452 76.2251Z" fill="#006834"/>
<path d="M58.3139 51.9343C55.206 48.8264 51.5665 46.3319 47.4363 44.4917C43.306 42.6515 39.0122 41.7109 34.4731 41.7109C29.5659 41.7109 24.9858 42.6106 20.7738 44.4099C16.5618 46.2092 12.9223 48.6628 9.85527 51.7707C8.79204 52.8748 7.76971 54.0607 6.87006 55.2875C8.424 57.9865 10.2233 60.6037 12.3498 63.1391C13.4539 61.2989 14.7216 59.5813 16.2346 58.1092C18.5656 55.7783 21.2645 53.9789 24.3315 52.6295C27.3985 51.3209 30.7109 50.6257 34.1868 50.6257C37.7037 50.6257 41.016 51.28 44.1239 52.6295C47.2318 53.9381 49.9717 55.7783 52.3026 58.1092C54.6335 60.4401 56.4328 63.1391 57.7823 66.247C59.0909 69.3549 59.7861 72.6672 59.7861 76.184C59.6634 78.6785 59.2545 81.0095 58.6002 83.2177C61.7489 83.2995 65.1022 83.2177 68.5781 82.9723V76.184C68.5781 71.4404 67.6376 67.0239 65.7974 62.8528C63.9163 58.7226 61.4627 55.0831 58.3139 51.9343Z" fill="#009444"/>
<path d="M113.724 46.6999C113.724 44.3281 115.646 42.3652 118.059 42.3652C120.431 42.3652 122.394 44.2872 122.394 46.6999V106.282C122.394 108.653 120.472 110.616 118.059 110.616C115.687 110.616 113.724 108.694 113.724 106.282V46.6999Z" fill="#006834"/>
<path d="M118.182 39.1346C119.777 39.1346 121.126 38.5621 122.23 37.458C123.334 36.3538 123.907 34.9635 123.907 33.4095C123.907 31.8147 123.334 30.4652 122.23 29.3202C121.126 28.2161 119.736 27.6436 118.182 27.6436C116.628 27.6436 115.237 28.2161 114.133 29.3202C112.988 30.4243 112.457 31.8147 112.457 33.4095C112.457 35.0044 113.029 36.3538 114.133 37.458C115.237 38.5621 116.587 39.1346 118.182 39.1346Z" fill="#009444"/>
<path d="M122.394 65.3882V46.6999C122.394 44.3281 120.472 42.3652 118.059 42.3652C115.687 42.3652 113.724 44.2872 113.724 46.6999V70.3363C116.669 68.9459 119.654 67.3102 122.394 65.3882Z" fill="#009444"/>
<path d="M94.0547 87.0619C96.0176 85.2217 97.5715 83.6268 98.7983 82.2773C99.9843 80.9279 100.966 79.7011 101.62 78.5969C102.315 77.4928 102.765 76.4296 103.01 75.4073C103.256 74.4258 103.338 73.3217 103.338 72.1767C103.338 70.5409 103.051 68.987 102.479 67.5557C101.906 66.1245 101.088 64.8568 100.066 63.7935C99.0437 62.6894 97.8169 61.8716 96.3856 61.2582C94.9544 60.6448 93.4004 60.3585 91.6829 60.3585C88.9839 60.3585 86.653 61.0946 84.6901 62.5667C82.7273 64.0389 81.3778 66.0427 80.6826 68.619C80.4372 69.355 80.151 69.9684 79.7829 70.4592C79.4149 70.9499 78.8424 71.1952 78.1063 71.1952C77.3702 71.1952 76.7568 70.9499 76.2661 70.4592C75.7754 69.9684 75.53 69.355 75.53 68.619C75.53 67.3513 75.939 65.9609 76.675 64.4069C77.452 62.853 78.5561 61.4217 79.9874 60.1131C81.4187 58.8046 83.1362 57.7004 85.1809 56.8008C87.2255 55.9011 89.5155 55.4922 92.0918 55.4922C94.3819 55.4922 96.5083 55.942 98.4712 56.8826C100.434 57.7822 102.192 59.009 103.665 60.563C105.137 62.1169 106.323 63.9162 107.181 66.0018C108.04 68.0873 108.49 70.2956 108.49 72.5856C108.49 75.4073 107.795 78.0653 106.486 80.6416C105.137 83.2179 103.01 85.8351 100.107 88.4522L82.073 105.219H105.75C106.486 105.219 107.141 105.464 107.631 105.995C108.163 106.527 108.408 107.141 108.408 107.877C108.408 108.613 108.163 109.226 107.631 109.717C107.1 110.208 106.486 110.453 105.75 110.453H76.7977C76.6341 110.453 76.3479 110.412 75.9798 110.371C75.6118 110.33 75.2438 110.208 74.9166 110.003C74.5895 109.799 74.2623 109.512 73.9761 109.144C73.6898 108.776 73.5262 108.286 73.5262 107.713C73.5671 106.977 74.0579 106.118 74.9984 105.219L94.0547 87.0619Z" fill="#006834"/>
<path d="M107.222 65.9608C106.364 63.8752 105.178 62.035 103.706 60.5219C102.233 58.968 100.475 57.7412 98.5121 56.8415C96.5492 55.9419 94.4228 55.4512 92.0918 55.4512C89.5156 55.4512 87.2255 55.901 85.1809 56.7598C83.1362 57.6594 81.4187 58.7635 79.9874 60.0721C78.5561 61.3807 77.452 62.812 76.675 64.3659C75.8981 65.9199 75.53 67.3102 75.53 68.5779C75.53 69.314 75.7754 69.9274 76.2661 70.4181C76.7568 70.9089 77.3702 71.1542 78.1063 71.1542C78.8424 71.1542 79.4149 70.9089 79.7829 70.4181C80.151 69.9274 80.4372 69.314 80.6826 68.5779C81.3778 66.0017 82.6864 63.9979 84.6901 62.5257C86.653 61.0536 88.9839 60.3175 91.6829 60.3175C93.4004 60.3175 94.9544 60.6037 96.3856 61.2171C97.8169 61.8305 99.0437 62.6484 100.066 63.7525C101.088 64.8566 101.906 66.0834 102.479 67.5147C103.051 68.946 103.338 70.4999 103.338 72.1357C103.338 73.0353 103.256 73.8941 103.133 74.6711C104.932 74.0577 106.732 73.4034 108.49 72.7082C108.49 72.6264 108.49 72.5446 108.49 72.4628C108.49 70.2546 108.081 68.0463 107.222 65.9608Z" fill="#009444"/>
<path d="M55.0016 75.979C55.0016 64.5289 45.7188 55.2461 34.2686 55.2461C22.8185 55.2461 13.5357 64.5289 13.5357 75.979C13.5357 87.4292 22.8185 96.712 34.2686 96.712C45.7188 96.712 55.0016 87.4292 55.0016 75.979Z" fill="#B11116"/>
<path d="M34.2687 55.2461C26.1309 55.2461 19.0563 59.9488 15.6622 66.8189C24.0044 75.1203 36.1088 81.6632 53.7748 83.0127C54.5518 80.8044 55.0016 78.4326 55.0016 75.979C55.0016 64.5289 45.7188 55.2461 34.2687 55.2461Z" fill="#ED1D24"/>
<path d="M41.0569 86.2843L35.4546 75.2431L40.1164 72.8713L29.157 65.7559L28.4618 78.8008L33.1645 76.429L38.7669 87.4702L41.0569 86.2843Z" fill="white"/>
<path d="M32.7556 31.6512C32.7556 31.6512 32.7964 30.5062 34.5958 31.3649C36.3951 32.2646 40.5253 34.8409 45.3507 33.6141C50.1352 32.3873 51.1576 30.5471 56.351 30.4653C56.351 30.4653 60.5221 30.6697 62.9757 32.3873C62.9757 32.3873 62.485 30.3426 57.0871 29.4429C51.6892 28.5842 49.849 29.402 46.9047 28.9931C43.9194 28.5842 39.9119 27.1938 38.9713 25.5581C38.0308 23.9632 38.1535 21.8368 39.871 21.4278C39.871 21.4278 41.4658 21.1007 42.938 22.6546C44.4102 24.2086 47.927 26.4168 51.2394 25.967C54.5517 25.5581 55.1651 25.1082 55.1651 25.1082C55.1651 25.1082 47.4363 25.7625 43.8377 17.0931C43.8377 17.0931 41.9157 12.7584 40.5662 9.11893C40.5662 9.11893 35.8226 -4.78481 19.6288 1.67634C19.6288 1.67634 23.7181 2.28974 23.8408 6.17461C23.8408 6.17461 24.4133 12.1042 23.1047 17.2976C21.837 22.4911 22.4095 35.2498 41.2205 38.3577C41.2205 38.3577 32.183 35.6178 32.7556 31.6512Z" fill="#231F20"/>
<path d="M55.4105 33.7777C54.4699 33.8595 53.5703 34.1048 52.7115 34.4729C50.7895 35.2498 45.8005 36.9265 41.6703 35.6997C41.6703 35.6997 47.5998 39.7072 53.6929 38.3168C53.6929 38.3168 62.2397 35.8632 66.2881 38.8893C66.2881 38.8485 62.1988 33.1234 55.4105 33.7777Z" fill="#231F20"/>
<path d="M30.5064 8.71C31.4061 14.9667 30.2611 22.9818 35.25 27.8072C39.4212 31.8965 45.5143 31.4876 50.626 29.6474C51.1985 29.4429 51.771 29.2385 52.3026 29.034C50.1761 29.034 48.7449 29.2385 46.9047 28.9931C43.9194 28.5842 39.9119 27.1938 38.9713 25.5581C38.0308 23.9223 38.1535 21.8368 39.871 21.4278C39.871 21.4278 41.4658 21.1007 42.938 22.6546C44.4102 24.2086 47.927 26.4168 51.2394 25.967C54.5517 25.5581 55.1651 25.1082 55.1651 25.1082C55.1651 25.1082 47.4363 25.7625 43.8377 17.0931C43.8377 17.0931 41.9157 12.7993 40.5662 9.11893C40.5662 9.11893 35.8226 -4.78481 19.6288 1.67634C19.6288 1.67634 19.7515 1.67634 19.915 1.71724C23.0638 1.83992 29.6886 2.69868 30.5064 8.71Z" fill="#414042"/>
<path d="M28.8707 4.74323C28.9525 4.25251 28.6662 3.80268 28.1755 3.7209C27.6848 3.63911 27.2349 3.92536 27.1123 4.41608C27.0305 4.9068 27.3167 5.35663 27.8074 5.47931C28.2982 5.5611 28.7889 5.23395 28.8707 4.74323Z" fill="white"/>
<path d="M26.9896 123.865H24.3315C24.4133 124.111 24.6178 124.356 24.904 124.561C25.0267 124.642 25.1085 124.683 25.2312 124.724C25.4356 124.765 25.681 124.765 26.0082 124.724L26.5398 125.378C26.1717 126.155 25.9673 126.728 25.9673 127.096C25.9673 127.955 26.0899 128.527 26.2944 128.773L25.7628 129.059C25.6401 128.895 25.5174 128.609 25.3947 128.282C25.313 127.955 25.2721 127.668 25.2721 127.464C25.2721 127.014 25.313 126.605 25.4356 126.237L25.681 125.46C25.2312 125.419 24.7813 125.256 24.3724 124.969C23.9226 124.683 23.6363 124.315 23.5954 123.865C23.5137 123.906 23.4319 123.988 23.3092 124.111C22.9003 124.479 22.6958 124.929 22.6958 125.378C22.6958 125.706 22.8185 125.869 23.0638 125.869C23.2274 125.869 23.391 125.828 23.5545 125.706C23.7181 125.624 23.8408 125.501 23.9226 125.338H24.6178C24.7814 125.583 24.8631 125.951 24.8631 126.442C24.8631 126.851 24.8222 127.137 24.6996 127.382C24.4133 128.036 23.759 128.405 22.8594 128.405C22.4504 128.405 22.0824 128.241 21.6326 127.955C21.5508 127.914 21.469 127.873 21.3872 127.791C21.1827 127.464 20.8965 126.891 20.5284 126.155L20.9783 125.706C21.1009 126.155 21.3872 126.646 21.7961 127.219L21.8779 127.341C21.9188 127.341 21.9597 127.382 22.0415 127.423C22.3277 127.628 22.614 127.709 22.8185 127.709C23.3501 127.709 23.759 127.546 23.9635 127.178C24.0453 127.014 24.1271 126.81 24.1271 126.605C24.1271 126.442 24.0862 126.278 24.0044 126.155C23.7181 126.483 23.391 126.605 23.0229 126.605C22.7776 126.605 22.5322 126.523 22.3686 126.401C22.1642 126.278 22.0415 126.074 22.0006 125.828C21.9597 125.706 21.9188 125.542 21.9188 125.378C21.9188 125.051 22.0006 124.683 22.2051 124.356C22.246 124.274 22.3686 124.111 22.4913 123.906H20.0377V123.252H26.9896V123.865Z" fill="#006838"/>
<path d="M32.3875 123.866H31.8559V128.773H31.079V128.324C31.079 128.078 30.9154 127.71 30.6291 127.301C30.0157 126.483 29.4023 126.034 28.748 126.034C28.38 126.034 28.0937 126.238 27.9711 126.606C27.9711 126.647 27.9302 126.729 27.9302 126.811C27.9302 127.097 28.0528 127.301 28.2982 127.465C28.4209 127.547 28.5436 127.547 28.7071 127.547C28.8707 127.547 28.9934 127.506 29.157 127.424L29.3614 128.119C29.157 128.242 28.9525 128.283 28.6662 128.283H28.5027C28.4618 128.283 28.4209 128.242 28.2982 128.242C27.9711 128.201 27.6848 127.996 27.4394 127.751C27.235 127.547 27.1532 127.219 27.1532 126.811C27.1532 126.279 27.3577 125.87 27.7666 125.584C28.012 125.379 28.2982 125.297 28.6662 125.297C29.3205 125.297 29.8931 125.543 30.3838 125.993C30.5473 126.115 30.7109 126.279 30.8336 126.442C30.9154 126.524 30.9972 126.647 31.1199 126.851V123.866H26.7034V123.212H32.3875V123.866Z" fill="#006838"/>
<path d="M37.3765 123.865H36.7631V128.732H35.9861V125.46C35.9452 125.338 35.8634 125.133 35.7408 124.888C35.6181 124.642 35.4545 124.479 35.3727 124.397C35.0865 124.111 34.7184 123.988 34.2686 123.988C34.105 123.988 33.9824 124.029 33.8188 124.152C33.8188 124.152 33.6961 124.274 33.4507 124.438C33.5325 124.397 33.6552 124.397 33.8597 124.397C34.1868 124.397 34.4731 124.479 34.6775 124.642C34.9229 124.806 35.0456 125.051 35.0456 125.378C35.0456 125.583 35.0047 125.787 34.882 126.074C34.7593 126.319 34.6366 126.523 34.4731 126.646C34.0641 126.973 33.7779 127.178 33.5325 127.26L33.0418 126.646C33.2872 126.605 33.5734 126.401 33.9006 126.074C34.1459 125.828 34.2686 125.624 34.2686 125.419C34.2686 125.297 34.1868 125.215 34.0232 125.174C33.9006 125.133 33.7779 125.092 33.6552 125.092C33.6143 125.092 33.4916 125.092 33.369 125.051C33.2463 125.01 33.1645 125.01 33.0827 125.01C33.0009 125.01 32.9191 125.01 32.8373 125.051L32.4693 124.356C32.592 124.274 32.7556 124.07 32.96 123.824C33.0418 123.702 33.2054 123.579 33.4916 123.456C33.737 123.375 33.9824 123.293 34.1459 123.293C34.882 123.293 35.4954 123.62 35.9043 124.274V123.252H37.2947V123.865H37.3765Z" fill="#006838"/>
<path d="M40.4026 129.019C40.2391 129.101 40.0346 129.141 39.8301 129.141C39.3394 129.141 38.9714 129.101 38.726 128.978C38.4398 128.855 38.1535 128.61 37.949 128.242C37.8264 128.078 37.7446 127.792 37.6219 127.465C37.581 127.301 37.5401 127.056 37.5401 126.647C37.5401 126.034 37.8264 125.338 38.358 124.561C38.5215 124.398 38.726 124.152 38.9714 123.866H37.1721V123.212H40.3208V123.866C39.9119 124.03 39.503 124.275 39.1758 124.684C38.8896 125.011 38.6851 125.297 38.5624 125.543C38.358 126.034 38.2762 126.361 38.2762 126.565C38.2762 126.933 38.3171 127.179 38.358 127.383C38.3989 127.506 38.5215 127.751 38.726 128.078C38.8078 128.16 38.9714 128.283 39.2576 128.364C39.503 128.446 39.7074 128.446 39.871 128.446C40.0346 128.446 40.1982 128.364 40.4026 128.201V129.019Z" fill="#006838"/>
<path d="M44.4511 123.866H43.7968V128.773H43.0607V125.379C43.0607 125.134 42.8562 124.765 42.4473 124.316C42.2428 124.07 41.8748 123.948 41.4659 123.948C41.0569 123.948 40.7707 124.111 40.648 124.479C40.6071 124.561 40.6071 124.684 40.6071 124.765C40.6071 125.011 40.6889 125.174 40.8116 125.338C40.9343 125.502 41.1387 125.583 41.3432 125.583C41.5068 125.583 41.7112 125.542 41.9157 125.461L42.2837 126.197C41.9566 126.36 41.6703 126.442 41.3841 126.442C41.016 126.442 40.6889 126.319 40.4026 126.074C39.9937 125.747 39.7892 125.297 39.7892 124.765C39.7892 124.316 39.9119 123.948 40.1982 123.62C40.4844 123.293 40.8525 123.13 41.2614 123.13C41.3023 123.13 41.3841 123.089 41.5068 123.089C42.1202 123.089 42.6109 123.375 43.0198 123.948V123.171H44.4102V123.866H44.4511Z" fill="#006838"/>
<path d="M49.8081 123.866H49.2356V128.773H48.5813C48.5813 128.733 48.5404 128.692 48.4586 128.61C48.2132 128.324 47.8452 127.996 47.3136 127.628C47.0273 127.424 46.6184 127.219 46.0868 127.015C45.5143 126.811 45.1053 126.688 44.7782 126.688L44.5737 125.87C45.2689 125.42 46.2095 124.929 47.3954 124.48C47.8043 124.316 48.1723 124.152 48.5404 124.03V123.866H44.2466V123.212H49.849V123.866H49.8081ZM48.4995 127.669V124.889C48.1315 125.011 47.8452 125.134 47.6407 125.216C47.3136 125.338 47.0273 125.461 46.782 125.584C46.6593 125.666 46.4548 125.747 46.1686 125.952C46.0459 126.034 45.9232 126.074 45.8414 126.115C45.8823 126.156 46.005 126.156 46.1686 126.238C46.9047 126.524 47.5589 126.892 48.1315 127.342C48.2541 127.465 48.4177 127.547 48.4995 127.669ZM47.3545 128.528L46.9047 128.978C46.7411 128.814 46.4548 128.61 46.0459 128.364C46.005 128.364 45.9641 128.324 45.9232 128.283L46.2504 127.669C46.2913 127.669 46.3321 127.71 46.373 127.71C46.7002 127.874 46.9455 128.037 47.15 128.242C47.1909 128.324 47.2318 128.405 47.3545 128.528Z" fill="#006838"/>
<path d="M55.5741 123.866C55.5332 123.866 55.4514 123.866 55.3696 123.866C55.0425 123.948 54.7971 124.071 54.5517 124.275C53.9792 124.766 53.6112 125.42 53.4476 126.197C53.4067 126.32 53.4067 126.401 53.4067 126.524C53.4067 126.974 53.5294 127.383 53.7748 127.751C53.9383 127.996 54.1428 128.119 54.3882 128.119C54.5517 128.119 54.7153 128.078 54.8789 127.955L55.1243 128.61C54.8789 128.732 54.6744 128.814 54.3882 128.814C54.061 128.814 53.693 128.691 53.4067 128.405C53.2432 128.242 53.0387 127.955 52.8751 127.506C52.7933 127.301 52.7524 126.974 52.7524 126.524V126.197C52.7524 125.502 53.1205 124.725 53.8157 123.866C53.8975 123.784 54.0201 123.621 54.2655 123.416C54.3473 123.334 54.4291 123.253 54.5517 123.171H55.5741V123.866Z" fill="#006838"/>
<path d="M59.827 123.866H56.1875V125.911L57.2098 125.216C57.3734 125.134 57.6597 124.97 58.1095 124.807C58.314 124.725 58.4775 124.643 58.682 124.562L59.3363 125.461C59.1727 125.911 59.05 126.197 59.0091 126.361C58.8865 126.688 58.8456 127.015 58.8456 127.301C58.8456 127.71 58.9274 128.201 59.1318 128.733L58.5593 128.978C58.314 128.283 58.1504 127.833 58.1504 127.547C58.1504 126.974 58.1913 126.565 58.1913 126.32C58.1913 126.238 58.2322 125.993 58.314 125.625C57.7414 125.87 57.128 126.238 56.5146 126.729L56.3511 126.852C56.3102 126.892 56.1466 127.015 55.9421 127.22L55.3696 126.688V123.907H54.9607V123.253H59.7452V123.866H59.827Z" fill="#006838"/>
<path d="M61.7081 123.866H61.0538V128.773H60.2768V123.866H59.5816V123.212H61.7081V123.866Z" fill="#006838"/>
<path d="M67.1469 123.866H66.5744V128.773H65.9201C65.9201 128.733 65.8792 128.692 65.7974 128.61C65.552 128.324 65.184 127.996 64.6524 127.628C64.3661 127.424 63.9572 127.219 63.4256 127.015C62.8531 126.811 62.4441 126.688 62.117 126.688L61.9125 125.87C62.6077 125.42 63.5483 124.929 64.7342 124.48C65.1431 124.316 65.5112 124.152 65.8792 124.03V123.866H61.5854V123.212H67.1878V123.866H67.1469ZM65.8383 127.669V124.889C65.4703 125.011 65.184 125.134 64.9386 125.216C64.6115 125.338 64.3252 125.461 64.0799 125.584C63.9572 125.666 63.7527 125.747 63.4665 125.952C63.3438 126.034 63.2211 126.074 63.1393 126.115C63.1802 126.156 63.3029 126.156 63.4665 126.238C64.2026 126.524 64.8569 126.892 65.4294 127.342C65.5929 127.465 65.7156 127.547 65.8383 127.669ZM64.6933 128.528L64.2435 128.978C64.0799 128.814 63.7936 128.61 63.3847 128.364C63.3438 128.364 63.3029 128.324 63.262 128.283L63.5892 127.669C63.6301 127.669 63.6301 127.71 63.7118 127.71C64.039 127.874 64.3252 128.037 64.4888 128.242C64.4888 128.324 64.5706 128.405 64.6933 128.528Z" fill="#006838"/>
<path d="M70.1321 129.019C69.9686 129.101 69.7641 129.141 69.5596 129.141C69.0689 129.141 68.7009 129.101 68.4555 128.978C68.1692 128.855 67.883 128.61 67.6785 128.242C67.5967 128.078 67.4741 127.792 67.3514 127.465C67.3105 127.301 67.2696 127.056 67.2696 126.647C67.2696 126.034 67.5558 125.338 68.0875 124.561C68.251 124.398 68.4555 124.152 68.7009 123.866H66.9016V123.212H70.0503V123.866C69.6414 124.03 69.2325 124.275 68.9053 124.684C68.6191 125.011 68.4146 125.297 68.2919 125.543C68.0875 126.034 67.9648 126.361 67.9648 126.565C67.9648 126.933 68.0057 127.179 68.0466 127.383C68.0875 127.506 68.2101 127.751 68.4146 128.078C68.4964 128.16 68.66 128.283 68.9462 128.364C69.1916 128.446 69.396 128.446 69.5596 128.446C69.7232 128.446 69.8868 128.364 70.0912 128.201V129.019H70.1321Z" fill="#006838"/>
<path d="M74.3442 123.866H73.7308V128.733H72.9947V125.461C72.9538 125.338 72.872 125.134 72.7493 124.889C72.5857 124.643 72.4631 124.48 72.3404 124.398C72.0541 124.112 71.6861 123.989 71.2363 123.989C71.0727 123.989 70.95 124.03 70.7864 124.152C70.7864 124.152 70.6638 124.275 70.4184 124.439C70.5002 124.398 70.6229 124.398 70.8273 124.398C71.1545 124.398 71.4407 124.48 71.6452 124.643C71.8906 124.807 72.0132 125.052 72.0132 125.379C72.0132 125.584 71.9723 125.788 71.8497 126.074C71.727 126.32 71.6043 126.524 71.4816 126.647C71.0727 126.974 70.7864 127.179 70.5411 127.26L70.0504 126.647C70.2957 126.606 70.582 126.402 70.9091 126.074C71.1545 125.829 71.2772 125.625 71.2772 125.42C71.2772 125.297 71.1954 125.216 71.0318 125.175C70.9091 125.134 70.7864 125.093 70.6638 125.093C70.582 125.093 70.5002 125.093 70.3775 125.052C70.2548 125.011 70.173 125.011 70.0912 125.011C70.0095 125.011 69.9277 125.011 69.8459 125.052L69.5187 124.316C69.6414 124.234 69.805 124.03 70.0095 123.784C70.0912 123.662 70.2548 123.539 70.5411 123.416C70.7864 123.335 71.0318 123.253 71.1954 123.253C71.9723 123.253 72.5448 123.58 72.9538 124.234V123.212H74.3033V123.866H74.3442Z" fill="#006838"/>
<path d="M76.307 123.866H75.6527V128.773H74.9166V123.866H74.1805V123.212H76.307V123.866Z" fill="#006838"/>
<path d="M82.7682 123.866H79.8647V125.829L81.7458 125.134L82.3183 125.666C82.3183 125.788 82.3592 125.911 82.3592 126.074V126.279C82.3592 126.892 82.1957 127.383 81.9094 127.833C81.5822 128.283 81.1324 128.569 80.5599 128.692C80.3554 128.733 80.1101 128.773 79.8647 128.773C79.1695 128.773 78.5152 128.528 77.9018 127.996C77.4111 127.588 77.0022 126.851 76.6341 125.829L77.1658 125.379C77.2476 125.625 77.3702 125.911 77.5338 126.238C77.6974 126.647 77.861 126.892 77.9836 127.056C78.5561 127.751 79.1695 128.078 79.9056 128.078C80.3554 128.078 80.7235 127.915 81.0915 127.588C81.4596 127.26 81.6231 126.892 81.6231 126.442C81.6231 126.32 81.5822 126.156 81.5414 125.993L79.742 126.729L79.1286 126.156V123.866H76.1843V123.212H82.809V123.866H82.7682ZM80.519 129.837C80.3146 129.918 80.1101 130 79.9056 130C79.5785 130 79.2922 129.918 79.1695 129.755L79.2104 129.141C79.374 129.264 79.5785 129.305 79.8238 129.305C79.9465 129.305 80.151 129.264 80.4372 129.182L80.519 129.837Z" fill="#006838"/>
<path d="M84.772 123.866H84.1177V128.773H83.3407V123.866H82.6455V123.212H84.772V123.866Z" fill="#006838"/>
<path d="M90.2926 123.866H89.7201V128.773H89.0249C88.6568 128.446 88.0434 128.119 87.2665 127.792C86.8575 127.628 86.5713 127.506 86.285 127.424C85.9988 127.342 85.6716 127.26 85.3036 127.178L85.0582 126.401L87.1438 125.502C86.9802 125.216 86.6531 125.011 86.2032 124.807C85.7943 124.602 85.3854 124.52 85.0582 124.52V123.825H84.6084V123.171H90.2926V123.866ZM88.984 127.915V123.866H86.1623C86.5304 124.071 86.7758 124.234 86.9393 124.316C87.4709 124.684 87.839 124.97 87.9617 125.256V126.033L86.5304 126.688L87.4709 127.056C87.839 127.178 88.1252 127.342 88.3706 127.506C88.5342 127.628 88.7386 127.751 88.984 127.915ZM88.0025 129.019L87.6754 129.591L87.1438 129.346C87.062 129.305 86.8984 129.264 86.694 129.223C86.6531 129.223 86.6122 129.223 86.5713 129.182L86.694 128.487C86.7349 128.487 86.8575 128.487 86.9802 128.528C87.1438 128.569 87.3483 128.651 87.5936 128.773C87.6345 128.773 87.7572 128.855 88.0025 129.019Z" fill="#006838"/>
<path d="M96.0176 123.866C95.9767 123.866 95.8949 123.866 95.8131 123.866C95.486 123.948 95.2406 124.071 94.9952 124.275C94.4227 124.766 94.0547 125.42 93.8911 126.197C93.8502 126.32 93.8502 126.401 93.8502 126.524C93.8502 126.974 93.9729 127.383 94.2183 127.751C94.3818 127.996 94.5863 128.119 94.8317 128.119C94.9952 128.119 95.1588 128.078 95.3224 127.955L95.5677 128.61C95.3224 128.732 95.1179 128.814 94.8317 128.814C94.4636 128.814 94.1365 128.691 93.8502 128.405C93.6866 128.242 93.4822 127.955 93.3186 127.506C93.2368 127.301 93.1959 126.974 93.1959 126.524V126.197C93.1959 125.502 93.564 124.725 94.3 123.866C94.3409 123.784 94.5045 123.621 94.7499 123.416C94.8317 123.334 94.9134 123.253 95.0361 123.171H96.0585V123.866H96.0176Z" fill="#006838"/>
<path d="M100.802 123.866H100.27V128.733H99.5344V126.238C99.4526 125.829 99.289 125.625 99.0028 125.625C98.7574 125.625 98.5939 125.747 98.4303 126.034L97.8169 127.219C97.5306 127.792 97.1217 128.078 96.631 128.078C96.5083 128.078 96.3447 127.996 96.0176 127.915C95.9767 127.874 95.8949 127.833 95.8131 127.751V126.974L95.9767 127.138C96.1811 127.301 96.3856 127.342 96.5492 127.342C96.7946 127.342 96.999 127.138 97.2035 126.77C97.3671 126.442 97.4488 126.156 97.4897 125.87C97.4897 125.666 97.4488 125.461 97.3671 125.175C97.2853 124.889 97.1626 124.725 97.0399 124.561C96.7946 124.316 96.4674 124.071 96.0994 123.866H95.486V123.212H100.843V123.866H100.802ZM99.5344 125.216V123.866H97.3262C97.4079 123.907 97.4897 123.989 97.6124 124.112C97.9396 124.48 98.144 124.889 98.144 125.257C98.3894 125.011 98.6348 124.848 98.8801 124.848C99.2073 124.889 99.4117 125.011 99.5344 125.216Z" fill="#006838"/>
<path d="M106.404 123.866H105.75V128.773H105.096C105.096 128.733 105.055 128.692 104.973 128.61C104.728 128.324 104.36 127.996 103.828 127.628C103.542 127.424 103.092 127.219 102.56 127.015C101.988 126.77 101.538 126.647 101.211 126.647L101.007 125.829C101.211 125.666 101.784 125.379 102.806 124.929C103.256 124.725 103.705 124.561 104.196 124.357L105.014 124.03V123.866H100.598V123.212H106.404V123.866ZM104.973 127.669V124.889C104.769 124.97 104.523 125.052 104.278 125.175C103.992 125.297 103.419 125.543 102.642 125.911L102.233 126.115L102.806 126.32C103.337 126.524 103.91 126.892 104.605 127.383C104.769 127.465 104.891 127.588 104.973 127.669Z" fill="#006838"/>
<path d="M108.245 123.866H107.59V128.773H106.854V123.866H106.118V123.212H108.245V123.866Z" fill="#006838"/>
</g>
<defs>
<clipPath id="clip0_3367_242">
<rect width="123.948" height="130" fill="white"/>
</clipPath>
</defs>
</svg>
